<svg width="290" height="51" viewBox="0 0 290 51" fill="none" xmlns="http://www.w3.org/2000/svg">
<rect width="290" height="51" rx="8" fill="#5D387F"/>
<path d="M242.607 29.6193C241.965 29.6193 241.418 29.4446 240.966 29.0952C240.515 28.7429 240.169 28.233 239.931 27.5653C239.692 26.8949 239.573 26.0852 239.573 25.1364C239.573 24.1932 239.692 23.3878 239.931 22.7202C240.172 22.0497 240.519 21.5384 240.971 21.1861C241.425 20.831 241.971 20.6534 242.607 20.6534C243.243 20.6534 243.787 20.831 244.239 21.1861C244.694 21.5384 245.04 22.0497 245.279 22.7202C245.52 23.3878 245.641 24.1932 245.641 25.1364C245.641 26.0852 245.522 26.8949 245.283 27.5653C245.044 28.233 244.699 28.7429 244.248 29.0952C243.796 29.4446 243.249 29.6193 242.607 29.6193ZM242.607 28.6818C243.243 28.6818 243.738 28.375 244.09 27.7614C244.442 27.1477 244.618 26.2727 244.618 25.1364C244.618 24.3807 244.537 23.7372 244.375 23.206C244.216 22.6747 243.986 22.2699 243.685 21.9915C243.387 21.7131 243.027 21.5739 242.607 21.5739C241.976 21.5739 241.483 21.8849 241.128 22.5071C240.773 23.1264 240.596 24.0028 240.596 25.1364C240.596 25.892 240.675 26.5341 240.834 27.0625C240.993 27.5909 241.222 27.9929 241.52 28.2685C241.821 28.544 242.184 28.6818 242.607 28.6818ZM249.867 29.6193C249.225 29.6193 248.678 29.4446 248.226 29.0952C247.775 28.7429 247.429 28.233 247.191 27.5653C246.952 26.8949 246.833 26.0852 246.833 25.1364C246.833 24.1932 246.952 23.3878 247.191 22.7202C247.432 22.0497 247.779 21.5384 248.231 21.1861C248.685 20.831 249.231 20.6534 249.867 20.6534C250.503 20.6534 251.047 20.831 251.499 21.1861C251.954 21.5384 252.3 22.0497 252.539 22.7202C252.78 23.3878 252.901 24.1932 252.901 25.1364C252.901 26.0852 252.782 26.8949 252.543 27.5653C252.304 28.233 251.959 28.7429 251.508 29.0952C251.056 29.4446 250.509 29.6193 249.867 29.6193ZM249.867 28.6818C250.503 28.6818 250.998 28.375 251.35 27.7614C251.702 27.1477 251.878 26.2727 251.878 25.1364C251.878 24.3807 251.797 23.7372 251.635 23.206C251.476 22.6747 251.246 22.2699 250.945 21.9915C250.647 21.7131 250.287 21.5739 249.867 21.5739C249.236 21.5739 248.743 21.8849 248.388 22.5071C248.033 23.1264 247.856 24.0028 247.856 25.1364C247.856 25.892 247.935 26.5341 248.094 27.0625C248.253 27.5909 248.482 27.9929 248.78 28.2685C249.081 28.544 249.444 28.6818 249.867 28.6818ZM255.03 28.3835C254.82 28.3835 254.64 28.3082 254.489 28.1577C254.339 28.0071 254.263 27.8267 254.263 27.6165C254.263 27.4062 254.339 27.2259 254.489 27.0753C254.64 26.9247 254.82 26.8494 255.03 26.8494C255.241 26.8494 255.421 26.9247 255.572 27.0753C255.722 27.2259 255.797 27.4062 255.797 27.6165C255.797 27.7557 255.762 27.8835 255.691 28C255.623 28.1165 255.53 28.2102 255.414 28.2812C255.3 28.3494 255.172 28.3835 255.03 28.3835ZM255.03 23.9688C254.82 23.9688 254.64 23.8935 254.489 23.7429C254.339 23.5923 254.263 23.4119 254.263 23.2017C254.263 22.9915 254.339 22.8111 254.489 22.6605C254.64 22.5099 254.82 22.4347 255.03 22.4347C255.241 22.4347 255.421 22.5099 255.572 22.6605C255.722 22.8111 255.797 22.9915 255.797 23.2017C255.797 23.3409 255.762 23.4688 255.691 23.5852C255.623 23.7017 255.53 23.7955 255.414 23.8665C255.3 23.9347 255.172 23.9688 255.03 23.9688ZM260.294 29.6193C259.731 29.6193 259.23 29.5227 258.79 29.3295C258.352 29.1364 258.004 28.8679 257.746 28.5241C257.49 28.1776 257.351 27.7756 257.328 27.3182H258.402C258.425 27.5994 258.521 27.8423 258.692 28.0469C258.862 28.2486 259.085 28.4048 259.361 28.5156C259.636 28.6264 259.942 28.6818 260.277 28.6818C260.652 28.6818 260.984 28.6165 261.274 28.4858C261.564 28.3551 261.791 28.1733 261.956 27.9403C262.121 27.7074 262.203 27.4375 262.203 27.1307C262.203 26.8097 262.123 26.527 261.964 26.2827C261.805 26.0355 261.572 25.8423 261.266 25.7031C260.959 25.5639 260.584 25.4943 260.141 25.4943H259.442V24.5568H260.141C260.487 24.5568 260.791 24.4943 261.052 24.3693C261.317 24.2443 261.523 24.0682 261.67 23.8409C261.821 23.6136 261.896 23.3466 261.896 23.0398C261.896 22.7443 261.831 22.4872 261.7 22.2685C261.569 22.0497 261.385 21.8793 261.146 21.7571C260.91 21.6349 260.632 21.5739 260.311 21.5739C260.01 21.5739 259.726 21.6293 259.459 21.7401C259.194 21.848 258.979 22.0057 258.811 22.2131C258.643 22.4176 258.552 22.6648 258.538 22.9545H257.516C257.533 22.4972 257.67 22.0966 257.929 21.7528C258.187 21.4062 258.525 21.1364 258.943 20.9432C259.364 20.75 259.825 20.6534 260.328 20.6534C260.868 20.6534 261.331 20.7628 261.717 20.9815C262.104 21.1974 262.4 21.483 262.608 21.8381C262.815 22.1932 262.919 22.5767 262.919 22.9886C262.919 23.4801 262.79 23.8991 262.531 24.2457C262.275 24.5923 261.927 24.8324 261.487 24.9659V25.0341C262.038 25.125 262.469 25.3594 262.778 25.7372C263.088 26.1122 263.243 26.5767 263.243 27.1307C263.243 27.6051 263.114 28.0312 262.855 28.4091C262.599 28.7841 262.25 29.0795 261.807 29.2955C261.364 29.5114 260.859 29.6193 260.294 29.6193ZM267.473 29.6193C266.973 29.6193 266.523 29.5199 266.122 29.321C265.722 29.1222 265.401 28.8494 265.159 28.5028C264.918 28.1562 264.785 27.7614 264.763 27.3182H265.785C265.825 27.7131 266.004 28.0398 266.322 28.2983C266.643 28.554 267.027 28.6818 267.473 28.6818C267.831 28.6818 268.149 28.598 268.427 28.4304C268.709 28.2628 268.929 28.0327 269.088 27.7401C269.25 27.4446 269.331 27.1108 269.331 26.7386C269.331 26.358 269.247 26.0185 269.079 25.7202C268.915 25.419 268.687 25.1818 268.398 25.0085C268.108 24.8352 267.777 24.7472 267.405 24.7443C267.138 24.7415 266.864 24.7827 266.582 24.8679C266.301 24.9503 266.07 25.0568 265.888 25.1875L264.899 25.0682L265.427 20.7727H269.962V21.7102H266.314L266.007 24.2841H266.058C266.237 24.142 266.462 24.0241 266.731 23.9304C267.001 23.8366 267.283 23.7898 267.575 23.7898C268.109 23.7898 268.585 23.9176 269.003 24.1733C269.423 24.4261 269.753 24.7727 269.991 25.2131C270.233 25.6534 270.354 26.1562 270.354 26.7216C270.354 27.2784 270.229 27.7756 269.979 28.2131C269.731 28.6477 269.391 28.9915 268.956 29.2443C268.521 29.4943 268.027 29.6193 267.473 29.6193Z" fill="white"/>
<path d="M16 24.9999V21.4399C16 17.0199 19.13 15.2099 22.96 17.4199L26.05 19.1999L29.14 20.9799C32.97 23.1899 32.97 26.8099 29.14 29.0199L26.05 30.7999L22.96 32.5799C19.13 34.7899 16 32.9799 16 28.5599V24.9999Z" stroke="white" stroke-width="1.5" stroke-miterlimit="10" stroke-linecap="round" stroke-linejoin="round"/>
<path d="M62 22.4885C62 22.1359 62.2858 21.8501 62.6384 21.8501C62.991 21.8501 63.2768 22.1359 63.2768 22.4885V26.0473C63.2768 26.3998 62.991 26.6857 62.6384 26.6857C62.2858 26.6857 62 26.3998 62 26.0473V22.4885Z" fill="white"/>
<path d="M62 22.4885C62 22.1359 62.2858 21.8501 62.6384 21.8501C62.991 21.8501 63.2768 22.1359 63.2768 22.4885V26.0473C63.2768 26.3998 62.991 26.6857 62.6384 26.6857C62.2858 26.6857 62 26.3998 62 26.0473V22.4885Z" stroke="white"/>
<path d="M65.1133 21.28C65.1133 20.9274 65.3991 20.6416 65.7517 20.6416C66.1042 20.6416 66.3901 20.9274 66.3901 21.28V27.2565C66.3901 27.6091 66.1042 27.8949 65.7517 27.8949C65.3991 27.8949 65.1133 27.6091 65.1133 27.2565V21.28Z" fill="white"/>
<path d="M65.1133 21.28C65.1133 20.9274 65.3991 20.6416 65.7517 20.6416C66.1042 20.6416 66.3901 20.9274 66.3901 21.28V27.2565C66.3901 27.6091 66.1042 27.8949 65.7517 27.8949C65.3991 27.8949 65.1133 27.6091 65.1133 27.2565V21.28Z" stroke="white"/>
<path d="M68.2266 20.4738C68.2266 20.1213 68.5124 19.8354 68.865 19.8354C69.2175 19.8354 69.5033 20.1213 69.5033 20.4738V28.0622C69.5033 28.4148 69.2175 28.7006 68.865 28.7006C68.5124 28.7006 68.2266 28.4148 68.2266 28.0622V20.4738Z" fill="white"/>
<path d="M68.2266 20.4738C68.2266 20.1213 68.5124 19.8354 68.865 19.8354C69.2175 19.8354 69.5033 20.1213 69.5033 20.4738V28.0622C69.5033 28.4148 69.2175 28.7006 68.865 28.7006C68.5124 28.7006 68.2266 28.4148 68.2266 28.0622V20.4738Z" stroke="white"/>
<path d="M71.3398 16.8474C71.3398 16.4948 71.6257 16.209 71.9782 16.209C72.3308 16.209 72.6166 16.4948 72.6166 16.8474V31.6891C72.6166 32.0417 72.3308 32.3275 71.9782 32.3275C71.6257 32.3275 71.3398 32.0417 71.3398 31.6891V16.8474Z" fill="white"/>
<path d="M71.3398 16.8474C71.3398 16.4948 71.6257 16.209 71.9782 16.209C72.3308 16.209 72.6166 16.4948 72.6166 16.8474V31.6891C72.6166 32.0417 72.3308 32.3275 71.9782 32.3275C71.6257 32.3275 71.3398 32.0417 71.3398 31.6891V16.8474Z" stroke="white"/>
<path d="M74.4531 21.6828C74.4531 21.3302 74.7389 21.0444 75.0915 21.0444C75.4441 21.0444 75.7299 21.3302 75.7299 21.6828V26.4505C75.7299 26.8031 75.4441 27.0889 75.0915 27.0889C74.7389 27.0889 74.4531 26.8031 74.4531 26.4505V21.6828Z" fill="white"/>
<path d="M74.4531 21.6828C74.4531 21.3302 74.7389 21.0444 75.0915 21.0444C75.4441 21.0444 75.7299 21.3302 75.7299 21.6828V26.4505C75.7299 26.8031 75.4441 27.0889 75.0915 27.0889C74.7389 27.0889 74.4531 26.8031 74.4531 26.4505V21.6828Z" stroke="white"/>
<path d="M77.5664 20.8772C77.5664 20.5246 77.8522 20.2388 78.2048 20.2388C78.5574 20.2388 78.8432 20.5246 78.8432 20.8772V28.0626C78.8432 28.4152 78.5574 28.701 78.2048 28.701C77.8522 28.701 77.5664 28.4152 77.5664 28.0626V20.8772Z" fill="white"/>
<path d="M77.5664 20.8772C77.5664 20.5246 77.8522 20.2388 78.2048 20.2388C78.5574 20.2388 78.8432 20.5246 78.8432 20.8772V28.0626C78.8432 28.4152 78.5574 28.701 78.2048 28.701C77.8522 28.701 77.5664 28.4152 77.5664 28.0626V20.8772Z" stroke="white"/>
<path d="M80.6777 18.862C80.6777 18.5094 80.9636 18.2236 81.3161 18.2236C81.6687 18.2236 81.9545 18.5094 81.9545 18.862V29.6741C81.9545 30.0267 81.6687 30.3125 81.3161 30.3125C80.9636 30.3125 80.6777 30.0267 80.6777 29.6741V18.862Z" fill="white"/>
<path d="M80.6777 18.862C80.6777 18.5094 80.9636 18.2236 81.3161 18.2236C81.6687 18.2236 81.9545 18.5094 81.9545 18.862V29.6741C81.9545 30.0267 81.6687 30.3125 81.3161 30.3125C80.9636 30.3125 80.6777 30.0267 80.6777 29.6741V18.862Z" stroke="white"/>
<path d="M83.793 16.8474C83.793 16.4948 84.0788 16.209 84.4314 16.209C84.7839 16.209 85.0697 16.4948 85.0697 16.8474V31.6891C85.0697 32.0417 84.7839 32.3275 84.4314 32.3275C84.0788 32.3275 83.793 32.0417 83.793 31.6891V16.8474Z" fill="white"/>
<path d="M83.793 16.8474C83.793 16.4948 84.0788 16.209 84.4314 16.209C84.7839 16.209 85.0697 16.4948 85.0697 16.8474V31.6891C85.0697 32.0417 84.7839 32.3275 84.4314 32.3275C84.0788 32.3275 83.793 32.0417 83.793 31.6891V16.8474Z" stroke="white"/>
<path d="M86.9043 20.4738C86.9043 20.1213 87.1901 19.8354 87.5427 19.8354C87.8953 19.8354 88.1811 20.1213 88.1811 20.4738V28.0622C88.1811 28.4148 87.8953 28.7006 87.5427 28.7006C87.1901 28.7006 86.9043 28.4148 86.9043 28.0622V20.4738Z" fill="white"/>
<path d="M86.9043 20.4738C86.9043 20.1213 87.1901 19.8354 87.5427 19.8354C87.8953 19.8354 88.1811 20.1213 88.1811 20.4738V28.0622C88.1811 28.4148 87.8953 28.7006 87.5427 28.7006C87.1901 28.7006 86.9043 28.4148 86.9043 28.0622V20.4738Z" stroke="white"/>
<path d="M90.0176 17.653C90.0176 17.3005 90.3034 17.0146 90.656 17.0146C91.0085 17.0146 91.2944 17.3005 91.2944 17.653V30.8829C91.2944 31.2355 91.0085 31.5213 90.656 31.5213C90.3034 31.5213 90.0176 31.2355 90.0176 30.8829V17.653Z" fill="white"/>
<path d="M90.0176 17.653C90.0176 17.3005 90.3034 17.0146 90.656 17.0146C91.0085 17.0146 91.2944 17.3005 91.2944 17.653V30.8829C91.2944 31.2355 91.0085 31.5213 90.656 31.5213C90.3034 31.5213 90.0176 31.2355 90.0176 30.8829V17.653Z" stroke="white"/>
<path d="M93.1328 20.8772C93.1328 20.5246 93.4186 20.2388 93.7712 20.2388C94.1238 20.2388 94.4096 20.5246 94.4096 20.8772V28.0626C94.4096 28.4152 94.1238 28.701 93.7712 28.701C93.4186 28.701 93.1328 28.4152 93.1328 28.0626V20.8772Z" fill="white"/>
<path d="M93.1328 20.8772C93.1328 20.5246 93.4186 20.2388 93.7712 20.2388C94.1238 20.2388 94.4096 20.5246 94.4096 20.8772V28.0626C94.4096 28.4152 94.1238 28.701 93.7712 28.701C93.4186 28.701 93.1328 28.4152 93.1328 28.0626V20.8772Z" stroke="white"/>
<path d="M96.2441 16.8474C96.2441 16.4948 96.53 16.209 96.8825 16.209C97.2351 16.209 97.5209 16.4948 97.5209 16.8474V31.6891C97.5209 32.0417 97.2351 32.3275 96.8825 32.3275C96.53 32.3275 96.2441 32.0417 96.2441 31.6891V16.8474Z" fill="white"/>
<path d="M96.2441 16.8474C96.2441 16.4948 96.53 16.209 96.8825 16.209C97.2351 16.209 97.5209 16.4948 97.5209 16.8474V31.6891C97.5209 32.0417 97.2351 32.3275 96.8825 32.3275C96.53 32.3275 96.2441 32.0417 96.2441 31.6891V16.8474Z" stroke="white"/>
<path d="M99.3594 20.4738C99.3594 20.1213 99.6452 19.8354 99.9978 19.8354C100.35 19.8354 100.636 20.1213 100.636 20.4738V28.0622C100.636 28.4148 100.35 28.7006 99.9978 28.7006C99.6452 28.7006 99.3594 28.4148 99.3594 28.0622V20.4738Z" fill="white"/>
<path d="M99.3594 20.4738C99.3594 20.1213 99.6452 19.8354 99.9978 19.8354C100.35 19.8354 100.636 20.1213 100.636 20.4738V28.0622C100.636 28.4148 100.35 28.7006 99.9978 28.7006C99.6452 28.7006 99.3594 28.4148 99.3594 28.0622V20.4738Z" stroke="white"/>
<path d="M102.471 18.862C102.471 18.5094 102.757 18.2236 103.109 18.2236C103.462 18.2236 103.747 18.5094 103.747 18.862V30.0771C103.747 30.4297 103.462 30.7155 103.109 30.7155C102.757 30.7155 102.471 30.4297 102.471 30.0771V18.862Z" fill="white"/>
<path d="M102.471 18.862C102.471 18.5094 102.757 18.2236 103.109 18.2236C103.462 18.2236 103.747 18.5094 103.747 18.862V30.0771C103.747 30.4297 103.462 30.7155 103.109 30.7155C102.757 30.7155 102.471 30.4297 102.471 30.0771V18.862Z" stroke="white"/>
<path d="M105.584 18.862C105.584 18.5094 105.87 18.2236 106.222 18.2236C106.575 18.2236 106.861 18.5094 106.861 18.862V29.6741C106.861 30.0267 106.575 30.3125 106.222 30.3125C105.87 30.3125 105.584 30.0267 105.584 29.6741V18.862Z" fill="white"/>
<path d="M105.584 18.862C105.584 18.5094 105.87 18.2236 106.222 18.2236C106.575 18.2236 106.861 18.5094 106.861 18.862V29.6741C106.861 30.0267 106.575 30.3125 106.222 30.3125C105.87 30.3125 105.584 30.0267 105.584 29.6741V18.862Z" stroke="white"/>
<path d="M108.697 20.4738C108.697 20.1213 108.983 19.8354 109.336 19.8354C109.688 19.8354 109.974 20.1213 109.974 20.4738V28.0622C109.974 28.4148 109.688 28.7006 109.336 28.7006C108.983 28.7006 108.697 28.4148 108.697 28.0622V20.4738Z" fill="white"/>
<path d="M108.697 20.4738C108.697 20.1213 108.983 19.8354 109.336 19.8354C109.688 19.8354 109.974 20.1213 109.974 20.4738V28.0622C109.974 28.4148 109.688 28.7006 109.336 28.7006C108.983 28.7006 108.697 28.4148 108.697 28.0622V20.4738Z" stroke="white"/>
<path d="M111.811 15.6384C111.811 15.2858 112.096 15 112.449 15C112.802 15 113.087 15.2858 113.087 15.6384V32.4949C113.087 32.8475 112.802 33.1333 112.449 33.1333C112.096 33.1333 111.811 32.8475 111.811 32.4949V15.6384Z" fill="white"/>
<path d="M111.811 15.6384C111.811 15.2858 112.096 15 112.449 15C112.802 15 113.087 15.2858 113.087 15.6384V32.4949C113.087 32.8475 112.802 33.1333 112.449 33.1333C112.096 33.1333 111.811 32.8475 111.811 32.4949V15.6384Z" stroke="white"/>
<path d="M114.922 21.28C114.922 20.9274 115.208 20.6416 115.56 20.6416C115.913 20.6416 116.199 20.9274 116.199 21.28V27.2565C116.199 27.6091 115.913 27.8949 115.56 27.8949C115.208 27.8949 114.922 27.6091 114.922 27.2565V21.28Z" fill="white"/>
<path d="M114.922 21.28C114.922 20.9274 115.208 20.6416 115.56 20.6416C115.913 20.6416 116.199 20.9274 116.199 21.28V27.2565C116.199 27.6091 115.913 27.8949 115.56 27.8949C115.208 27.8949 114.922 27.6091 114.922 27.2565V21.28Z" stroke="white"/>
<path d="M118.037 17.653C118.037 17.3005 118.323 17.0146 118.675 17.0146C119.028 17.0146 119.314 17.3005 119.314 17.653V30.8829C119.314 31.2355 119.028 31.5213 118.675 31.5213C118.323 31.5213 118.037 31.2355 118.037 30.8829V17.653Z" fill="white"/>
<path d="M118.037 17.653C118.037 17.3005 118.323 17.0146 118.675 17.0146C119.028 17.0146 119.314 17.3005 119.314 17.653V30.8829C119.314 31.2355 119.028 31.5213 118.675 31.5213C118.323 31.5213 118.037 31.2355 118.037 30.8829V17.653Z" stroke="white"/>
<path d="M121.15 18.0564C121.15 17.7038 121.436 17.418 121.789 17.418C122.141 17.418 122.427 17.7038 122.427 18.0564V29.6744C122.427 30.027 122.141 30.3128 121.789 30.3128C121.436 30.3128 121.15 30.027 121.15 29.6744V18.0564Z" fill="white"/>
<path d="M121.15 18.0564C121.15 17.7038 121.436 17.418 121.789 17.418C122.141 17.418 122.427 17.7038 122.427 18.0564V29.6744C122.427 30.027 122.141 30.3128 121.789 30.3128C121.436 30.3128 121.15 30.027 121.15 29.6744V18.0564Z" stroke="white"/>
<path d="M43.2285 19.0564C43.2285 18.7038 43.5143 18.418 43.8669 18.418C44.2195 18.418 44.5053 18.7038 44.5053 19.0564V30.6744C44.5053 31.027 44.2195 31.3128 43.8669 31.3128C43.5143 31.3128 43.2285 31.027 43.2285 30.6744V19.0564Z" fill="white"/>
<path d="M43.2285 19.0564C43.2285 18.7038 43.5143 18.418 43.8669 18.418C44.2195 18.418 44.5053 18.7038 44.5053 19.0564V30.6744C44.5053 31.027 44.2195 31.3128 43.8669 31.3128C43.5143 31.3128 43.2285 31.027 43.2285 30.6744V19.0564Z" stroke="white"/>
<path d="M124.264 20.8772C124.264 20.5246 124.549 20.2388 124.902 20.2388C125.255 20.2388 125.54 20.5246 125.54 20.8772V28.0626C125.54 28.4152 125.255 28.701 124.902 28.701C124.549 28.701 124.264 28.4152 124.264 28.0626V20.8772Z" fill="white"/>
<path d="M124.264 20.8772C124.264 20.5246 124.549 20.2388 124.902 20.2388C125.255 20.2388 125.54 20.5246 125.54 20.8772V28.0626C125.54 28.4152 125.255 28.701 124.902 28.701C124.549 28.701 124.264 28.4152 124.264 28.0626V20.8772Z" stroke="white"/>
<path d="M46.3418 21.8772C46.3418 21.5246 46.6276 21.2388 46.9802 21.2388C47.3328 21.2388 47.6186 21.5246 47.6186 21.8772V29.0626C47.6186 29.4152 47.3328 29.701 46.9802 29.701C46.6276 29.701 46.3418 29.4152 46.3418 29.0626V21.8772Z" fill="white"/>
<path d="M46.3418 21.8772C46.3418 21.5246 46.6276 21.2388 46.9802 21.2388C47.3328 21.2388 47.6186 21.5246 47.6186 21.8772V29.0626C47.6186 29.4152 47.3328 29.701 46.9802 29.701C46.6276 29.701 46.3418 29.4152 46.3418 29.0626V21.8772Z" stroke="white"/>
<path d="M127.377 20.8772C127.377 20.5246 127.663 20.2388 128.015 20.2388C128.368 20.2388 128.654 20.5246 128.654 20.8772V28.0626C128.654 28.4152 128.368 28.701 128.015 28.701C127.663 28.701 127.377 28.4152 127.377 28.0626V20.8772Z" fill="white"/>
<path d="M127.377 20.8772C127.377 20.5246 127.663 20.2388 128.015 20.2388C128.368 20.2388 128.654 20.5246 128.654 20.8772V28.0626C128.654 28.4152 128.368 28.701 128.015 28.701C127.663 28.701 127.377 28.4152 127.377 28.0626V20.8772Z" stroke="white"/>
<path d="M49.4551 21.8772C49.4551 21.5246 49.7409 21.2388 50.0935 21.2388C50.446 21.2388 50.7319 21.5246 50.7319 21.8772V29.0626C50.7319 29.4152 50.446 29.701 50.0935 29.701C49.7409 29.701 49.4551 29.4152 49.4551 29.0626V21.8772Z" fill="white"/>
<path d="M49.4551 21.8772C49.4551 21.5246 49.7409 21.2388 50.0935 21.2388C50.446 21.2388 50.7319 21.5246 50.7319 21.8772V29.0626C50.7319 29.4152 50.446 29.701 50.0935 29.701C49.7409 29.701 49.4551 29.4152 49.4551 29.0626V21.8772Z" stroke="white"/>
<path d="M130.488 17.653C130.488 17.3005 130.774 17.0146 131.127 17.0146C131.479 17.0146 131.765 17.3005 131.765 17.653V30.48C131.765 30.8325 131.479 31.1184 131.127 31.1184C130.774 31.1184 130.488 30.8325 130.488 30.48V17.653Z" fill="white"/>
<path d="M130.488 17.653C130.488 17.3005 130.774 17.0146 131.127 17.0146C131.479 17.0146 131.765 17.3005 131.765 17.653V30.48C131.765 30.8325 131.479 31.1184 131.127 31.1184C130.774 31.1184 130.488 30.8325 130.488 30.48V17.653Z" stroke="white"/>
<path d="M52.5664 18.653C52.5664 18.3005 52.8522 18.0146 53.2048 18.0146C53.5574 18.0146 53.8432 18.3005 53.8432 18.653V31.48C53.8432 31.8325 53.5574 32.1184 53.2048 32.1184C52.8522 32.1184 52.5664 31.8325 52.5664 31.48V18.653Z" fill="white"/>
<path d="M52.5664 18.653C52.5664 18.3005 52.8522 18.0146 53.2048 18.0146C53.5574 18.0146 53.8432 18.3005 53.8432 18.653V31.48C53.8432 31.8325 53.5574 32.1184 53.2048 32.1184C52.8522 32.1184 52.5664 31.8325 52.5664 31.48V18.653Z" stroke="white"/>
<path d="M133.604 21.6828C133.604 21.3302 133.889 21.0444 134.242 21.0444C134.594 21.0444 134.88 21.3302 134.88 21.6828V26.4505C134.88 26.8031 134.594 27.0889 134.242 27.0889C133.889 27.0889 133.604 26.8031 133.604 26.4505V21.6828Z" fill="white"/>
<path d="M133.604 21.6828C133.604 21.3302 133.889 21.0444 134.242 21.0444C134.594 21.0444 134.88 21.3302 134.88 21.6828V26.4505C134.88 26.8031 134.594 27.0889 134.242 27.0889C133.889 27.0889 133.604 26.8031 133.604 26.4505V21.6828Z" stroke="white"/>
<path d="M55.6816 22.6828C55.6816 22.3302 55.9675 22.0444 56.32 22.0444C56.6726 22.0444 56.9584 22.3302 56.9584 22.6828V27.4505C56.9584 27.8031 56.6726 28.0889 56.32 28.0889C55.9675 28.0889 55.6816 27.8031 55.6816 27.4505V22.6828Z" fill="white"/>
<path d="M55.6816 22.6828C55.6816 22.3302 55.9675 22.0444 56.32 22.0444C56.6726 22.0444 56.9584 22.3302 56.9584 22.6828V27.4505C56.9584 27.8031 56.6726 28.0889 56.32 28.0889C55.9675 28.0889 55.6816 27.8031 55.6816 27.4505V22.6828Z" stroke="white"/>
<path d="M136.715 18.0564C136.715 17.7038 137.001 17.418 137.353 17.418C137.706 17.418 137.992 17.7038 137.992 18.0564V30.0774C137.992 30.4299 137.706 30.7157 137.353 30.7157C137.001 30.7157 136.715 30.4299 136.715 30.0774V18.0564Z" fill="white"/>
<path d="M136.715 18.0564C136.715 17.7038 137.001 17.418 137.353 17.418C137.706 17.418 137.992 17.7038 137.992 18.0564V30.0774C137.992 30.4299 137.706 30.7157 137.353 30.7157C137.001 30.7157 136.715 30.4299 136.715 30.0774V18.0564Z" stroke="white"/>
<path d="M58.793 19.0564C58.793 18.7038 59.0788 18.418 59.4314 18.418C59.7839 18.418 60.0697 18.7038 60.0697 19.0564V31.0774C60.0697 31.4299 59.7839 31.7157 59.4314 31.7157C59.0788 31.7157 58.793 31.4299 58.793 31.0774V19.0564Z" fill="white"/>
<path d="M58.793 19.0564C58.793 18.7038 59.0788 18.418 59.4314 18.418C59.7839 18.418 60.0697 18.7038 60.0697 19.0564V31.0774C60.0697 31.4299 59.7839 31.7157 59.4314 31.7157C59.0788 31.7157 58.793 31.4299 58.793 31.0774V19.0564Z" stroke="white"/>
<path d="M139.828 20.8772C139.828 20.5246 140.114 20.2388 140.467 20.2388C140.819 20.2388 141.105 20.5246 141.105 20.8772V28.0626C141.105 28.4152 140.819 28.701 140.467 28.701C140.114 28.701 139.828 28.4152 139.828 28.0626V20.8772Z" fill="white"/>
<path d="M139.828 20.8772C139.828 20.5246 140.114 20.2388 140.467 20.2388C140.819 20.2388 141.105 20.5246 141.105 20.8772V28.0626C141.105 28.4152 140.819 28.701 140.467 28.701C140.114 28.701 139.828 28.4152 139.828 28.0626V20.8772Z" stroke="white"/>
<path d="M61.9062 21.8772C61.9062 21.5246 62.1921 21.2388 62.5446 21.2388C62.8972 21.2388 63.183 21.5246 63.183 21.8772V29.0626C63.183 29.4152 62.8972 29.701 62.5446 29.701C62.1921 29.701 61.9062 29.4152 61.9062 29.0626V21.8772Z" fill="white"/>
<path d="M61.9062 21.8772C61.9062 21.5246 62.1921 21.2388 62.5446 21.2388C62.8972 21.2388 63.183 21.5246 63.183 21.8772V29.0626C63.183 29.4152 62.8972 29.701 62.5446 29.701C62.1921 29.701 61.9062 29.4152 61.9062 29.0626V21.8772Z" stroke="white"/>
<path d="M142.941 15.6384C142.941 15.2858 143.227 15 143.58 15C143.932 15 144.218 15.2858 144.218 15.6384V32.4949C144.218 32.8475 143.932 33.1333 143.58 33.1333C143.227 33.1333 142.941 32.8475 142.941 32.4949V15.6384Z" fill="white"/>
<path d="M142.941 15.6384C142.941 15.2858 143.227 15 143.58 15C143.932 15 144.218 15.2858 144.218 15.6384V32.4949C144.218 32.8475 143.932 33.1333 143.58 33.1333C143.227 33.1333 142.941 32.8475 142.941 32.4949V15.6384Z" stroke="white"/>
<path d="M65.0195 16.6384C65.0195 16.2858 65.3053 16 65.6579 16C66.0105 16 66.2963 16.2858 66.2963 16.6384V33.4949C66.2963 33.8475 66.0105 34.1333 65.6579 34.1333C65.3053 34.1333 65.0195 33.8475 65.0195 33.4949V16.6384Z" fill="white"/>
<path d="M65.0195 16.6384C65.0195 16.2858 65.3053 16 65.6579 16C66.0105 16 66.2963 16.2858 66.2963 16.6384V33.4949C66.2963 33.8475 66.0105 34.1333 65.6579 34.1333C65.3053 34.1333 65.0195 33.8475 65.0195 33.4949V16.6384Z" stroke="white"/>
<path d="M186.252 16.7053C186.252 16.3527 186.538 16.0669 186.89 16.0669C187.243 16.0669 187.529 16.3527 187.529 16.7053V33.5618C187.529 33.9144 187.243 34.2002 186.89 34.2002C186.538 34.2002 186.252 33.9144 186.252 33.5618V16.7053Z" fill="white"/>
<path d="M186.252 16.7053C186.252 16.3527 186.538 16.0669 186.89 16.0669C187.243 16.0669 187.529 16.3527 187.529 16.7053V33.5618C187.529 33.9144 187.243 34.2002 186.89 34.2002C186.538 34.2002 186.252 33.9144 186.252 33.5618V16.7053Z" stroke="white"/>
<path d="M146.055 20.8772C146.055 20.5246 146.341 20.2388 146.693 20.2388C147.046 20.2388 147.331 20.5246 147.331 20.8772V28.0626C147.331 28.4152 147.046 28.701 146.693 28.701C146.341 28.701 146.055 28.4152 146.055 28.0626V20.8772Z" fill="white"/>
<path d="M146.055 20.8772C146.055 20.5246 146.341 20.2388 146.693 20.2388C147.046 20.2388 147.331 20.5246 147.331 20.8772V28.0626C147.331 28.4152 147.046 28.701 146.693 28.701C146.341 28.701 146.055 28.4152 146.055 28.0626V20.8772Z" stroke="white"/>
<path d="M189.365 21.9436C189.365 21.591 189.651 21.3052 190.004 21.3052C190.356 21.3052 190.642 21.591 190.642 21.9436V29.129C190.642 29.4816 190.356 29.7674 190.004 29.7674C189.651 29.7674 189.365 29.4816 189.365 29.129V21.9436Z" fill="white"/>
<path d="M189.365 21.9436C189.365 21.591 189.651 21.3052 190.004 21.3052C190.356 21.3052 190.642 21.591 190.642 21.9436V29.129C190.642 29.4816 190.356 29.7674 190.004 29.7674C189.651 29.7674 189.365 29.4816 189.365 29.129V21.9436Z" stroke="white"/>
<path d="M149.168 20.8772C149.168 20.5246 149.454 20.2388 149.806 20.2388C150.159 20.2388 150.445 20.5246 150.445 20.8772V28.0626C150.445 28.4152 150.159 28.701 149.806 28.701C149.454 28.701 149.168 28.4152 149.168 28.0626V20.8772Z" fill="white"/>
<path d="M149.168 20.8772C149.168 20.5246 149.454 20.2388 149.806 20.2388C150.159 20.2388 150.445 20.5246 150.445 20.8772V28.0626C150.445 28.4152 150.159 28.701 149.806 28.701C149.454 28.701 149.168 28.4152 149.168 28.0626V20.8772Z" stroke="white"/>
<path d="M192.479 21.9436C192.479 21.591 192.764 21.3052 193.117 21.3052C193.469 21.3052 193.755 21.591 193.755 21.9436V29.129C193.755 29.4816 193.469 29.7674 193.117 29.7674C192.764 29.7674 192.479 29.4816 192.479 29.129V21.9436Z" fill="white"/>
<path d="M192.479 21.9436C192.479 21.591 192.764 21.3052 193.117 21.3052C193.469 21.3052 193.755 21.591 193.755 21.9436V29.129C193.755 29.4816 193.469 29.7674 193.117 29.7674C192.764 29.7674 192.479 29.4816 192.479 29.129V21.9436Z" stroke="white"/>
<path d="M152.281 21.6828C152.281 21.3302 152.567 21.0444 152.92 21.0444C153.272 21.0444 153.558 21.3302 153.558 21.6828V26.4505C153.558 26.8031 153.272 27.0889 152.92 27.0889C152.567 27.0889 152.281 26.8031 152.281 26.4505V21.6828Z" fill="white"/>
<path d="M152.281 21.6828C152.281 21.3302 152.567 21.0444 152.92 21.0444C153.272 21.0444 153.558 21.3302 153.558 21.6828V26.4505C153.558 26.8031 153.272 27.0889 152.92 27.0889C152.567 27.0889 152.281 26.8031 152.281 26.4505V21.6828Z" stroke="white"/>
<path d="M195.592 22.7492C195.592 22.3967 195.878 22.1108 196.23 22.1108C196.583 22.1108 196.869 22.3967 196.869 22.7492V27.5169C196.869 27.8695 196.583 28.1553 196.23 28.1553C195.878 28.1553 195.592 27.8695 195.592 27.5169V22.7492Z" fill="white"/>
<path d="M195.592 22.7492C195.592 22.3967 195.878 22.1108 196.23 22.1108C196.583 22.1108 196.869 22.3967 196.869 22.7492V27.5169C196.869 27.8695 196.583 28.1553 196.23 28.1553C195.878 28.1553 195.592 27.8695 195.592 27.5169V22.7492Z" stroke="white"/>
<path d="M155.395 17.653C155.395 17.3005 155.68 17.0146 156.033 17.0146C156.385 17.0146 156.671 17.3005 156.671 17.653V30.48C156.671 30.8325 156.385 31.1184 156.033 31.1184C155.68 31.1184 155.395 30.8325 155.395 30.48V17.653Z" fill="white"/>
<path d="M155.395 17.653C155.395 17.3005 155.68 17.0146 156.033 17.0146C156.385 17.0146 156.671 17.3005 156.671 17.653V30.48C156.671 30.8325 156.385 31.1184 156.033 31.1184C155.68 31.1184 155.395 30.8325 155.395 30.48V17.653Z" stroke="white"/>
<path d="M198.705 18.7199C198.705 18.3674 198.991 18.0815 199.343 18.0815C199.696 18.0815 199.982 18.3674 199.982 18.7199V31.5469C199.982 31.8994 199.696 32.1852 199.343 32.1852C198.991 32.1852 198.705 31.8994 198.705 31.5469V18.7199Z" fill="white"/>
<path d="M198.705 18.7199C198.705 18.3674 198.991 18.0815 199.343 18.0815C199.696 18.0815 199.982 18.3674 199.982 18.7199V31.5469C199.982 31.8994 199.696 32.1852 199.343 32.1852C198.991 32.1852 198.705 31.8994 198.705 31.5469V18.7199Z" stroke="white"/>
<path d="M158.508 19.2649C158.508 18.9123 158.794 18.6265 159.146 18.6265C159.499 18.6265 159.785 18.9123 159.785 19.2649V28.8681C159.785 29.2207 159.499 29.5065 159.146 29.5065C158.794 29.5065 158.508 29.2207 158.508 28.8681V19.2649Z" fill="white"/>
<path d="M158.508 19.2649C158.508 18.9123 158.794 18.6265 159.146 18.6265C159.499 18.6265 159.785 18.9123 159.785 19.2649V28.8681C159.785 29.2207 159.499 29.5065 159.146 29.5065C158.794 29.5065 158.508 29.2207 158.508 28.8681V19.2649Z" stroke="white"/>
<path d="M201.818 20.3317C201.818 19.9792 202.104 19.6934 202.457 19.6934C202.809 19.6934 203.095 19.9792 203.095 20.3317V29.935C203.095 30.2875 202.809 30.5734 202.457 30.5734C202.104 30.5734 201.818 30.2875 201.818 29.935V20.3317Z" fill="white"/>
<path d="M201.818 20.3317C201.818 19.9792 202.104 19.6934 202.457 19.6934C202.809 19.6934 203.095 19.9792 203.095 20.3317V29.935C203.095 30.2875 202.809 30.5734 202.457 30.5734C202.104 30.5734 201.818 30.2875 201.818 29.935V20.3317Z" stroke="white"/>
<path d="M161.621 17.2502C161.621 16.8976 161.907 16.6118 162.259 16.6118C162.612 16.6118 162.898 16.8976 162.898 17.2502V31.689C162.898 32.0416 162.612 32.3274 162.259 32.3274C161.907 32.3274 161.621 32.0416 161.621 31.689V17.2502Z" fill="white"/>
<path d="M161.621 17.2502C161.621 16.8976 161.907 16.6118 162.259 16.6118C162.612 16.6118 162.898 16.8976 162.898 17.2502V31.689C162.898 32.0416 162.612 32.3274 162.259 32.3274C161.907 32.3274 161.621 32.0416 161.621 31.689V17.2502Z" stroke="white"/>
<path d="M204.932 18.3171C204.932 17.9645 205.217 17.6787 205.57 17.6787C205.923 17.6787 206.208 17.9645 206.208 18.3171V32.7559C206.208 33.1084 205.923 33.3943 205.57 33.3943C205.217 33.3943 204.932 33.1084 204.932 32.7559V18.3171Z" fill="white"/>
<path d="M204.932 18.3171C204.932 17.9645 205.217 17.6787 205.57 17.6787C205.923 17.6787 206.208 17.9645 206.208 18.3171V32.7559C206.208 33.1084 205.923 33.3943 205.57 33.3943C205.217 33.3943 204.932 33.1084 204.932 32.7559V18.3171Z" stroke="white"/>
<path d="M164.732 20.4738C164.732 20.1213 165.018 19.8354 165.371 19.8354C165.723 19.8354 166.009 20.1213 166.009 20.4738V28.0622C166.009 28.4148 165.723 28.7006 165.371 28.7006C165.018 28.7006 164.732 28.4148 164.732 28.0622V20.4738Z" fill="white"/>
<path d="M164.732 20.4738C164.732 20.1213 165.018 19.8354 165.371 19.8354C165.723 19.8354 166.009 20.1213 166.009 20.4738V28.0622C166.009 28.4148 165.723 28.7006 165.371 28.7006C165.018 28.7006 164.732 28.4148 164.732 28.0622V20.4738Z" stroke="white"/>
<path d="M208.045 21.5407C208.045 21.1882 208.331 20.9023 208.683 20.9023C209.036 20.9023 209.322 21.1882 209.322 21.5407V29.1291C209.322 29.4817 209.036 29.7675 208.683 29.7675C208.331 29.7675 208.045 29.4817 208.045 29.1291V21.5407Z" fill="white"/>
<path d="M208.045 21.5407C208.045 21.1882 208.331 20.9023 208.683 20.9023C209.036 20.9023 209.322 21.1882 209.322 21.5407V29.1291C209.322 29.4817 209.036 29.7675 208.683 29.7675C208.331 29.7675 208.045 29.4817 208.045 29.1291V21.5407Z" stroke="white"/>
<path d="M167.848 18.0564C167.848 17.7038 168.133 17.418 168.486 17.418C168.839 17.418 169.124 17.7038 169.124 18.0564V30.0774C169.124 30.4299 168.839 30.7157 168.486 30.7157C168.133 30.7157 167.848 30.4299 167.848 30.0774V18.0564Z" fill="white"/>
<path d="M167.848 18.0564C167.848 17.7038 168.133 17.418 168.486 17.418C168.839 17.418 169.124 17.7038 169.124 18.0564V30.0774C169.124 30.4299 168.839 30.7157 168.486 30.7157C168.133 30.7157 167.848 30.4299 167.848 30.0774V18.0564Z" stroke="white"/>
<path d="M211.156 19.1228C211.156 18.7702 211.442 18.4844 211.795 18.4844C212.147 18.4844 212.433 18.7702 212.433 19.1228V31.1438C212.433 31.4963 212.147 31.7822 211.795 31.7822C211.442 31.7822 211.156 31.4963 211.156 31.1438V19.1228Z" fill="white"/>
<path d="M211.156 19.1228C211.156 18.7702 211.442 18.4844 211.795 18.4844C212.147 18.4844 212.433 18.7702 212.433 19.1228V31.1438C212.433 31.4963 212.147 31.7822 211.795 31.7822C211.442 31.7822 211.156 31.4963 211.156 31.1438V19.1228Z" stroke="white"/>
<path d="M170.959 19.2649C170.959 18.9123 171.245 18.6265 171.597 18.6265C171.95 18.6265 172.236 18.9123 172.236 19.2649V28.8681C172.236 29.2207 171.95 29.5065 171.597 29.5065C171.245 29.5065 170.959 29.2207 170.959 28.8681V19.2649Z" fill="white"/>
<path d="M170.959 19.2649C170.959 18.9123 171.245 18.6265 171.597 18.6265C171.95 18.6265 172.236 18.9123 172.236 19.2649V28.8681C172.236 29.2207 171.95 29.5065 171.597 29.5065C171.245 29.5065 170.959 29.2207 170.959 28.8681V19.2649Z" stroke="white"/>
<path d="M214.271 20.3317C214.271 19.9792 214.557 19.6934 214.91 19.6934C215.262 19.6934 215.548 19.9792 215.548 20.3317V29.935C215.548 30.2875 215.262 30.5734 214.91 30.5734C214.557 30.5734 214.271 30.2875 214.271 29.935V20.3317Z" fill="white"/>
<path d="M214.271 20.3317C214.271 19.9792 214.557 19.6934 214.91 19.6934C215.262 19.6934 215.548 19.9792 215.548 20.3317V29.935C215.548 30.2875 215.262 30.5734 214.91 30.5734C214.557 30.5734 214.271 30.2875 214.271 29.935V20.3317Z" stroke="white"/>
<path d="M174.074 18.862C174.074 18.5094 174.36 18.2236 174.713 18.2236C175.065 18.2236 175.351 18.5094 175.351 18.862V29.6741C175.351 30.0267 175.065 30.3125 174.713 30.3125C174.36 30.3125 174.074 30.0267 174.074 29.6741V18.862Z" fill="white"/>
<path d="M174.074 18.862C174.074 18.5094 174.36 18.2236 174.713 18.2236C175.065 18.2236 175.351 18.5094 175.351 18.862V29.6741C175.351 30.0267 175.065 30.3125 174.713 30.3125C174.36 30.3125 174.074 30.0267 174.074 29.6741V18.862Z" stroke="white"/>
<path d="M217.383 19.9289C217.383 19.5763 217.669 19.2905 218.021 19.2905C218.374 19.2905 218.66 19.5763 218.66 19.9289V30.741C218.66 31.0936 218.374 31.3794 218.021 31.3794C217.669 31.3794 217.383 31.0936 217.383 30.741V19.9289Z" fill="white"/>
<path d="M217.383 19.9289C217.383 19.5763 217.669 19.2905 218.021 19.2905C218.374 19.2905 218.66 19.5763 218.66 19.9289V30.741C218.66 31.0936 218.374 31.3794 218.021 31.3794C217.669 31.3794 217.383 31.0936 217.383 30.741V19.9289Z" stroke="white"/>
<path d="M177.186 20.4738C177.186 20.1213 177.471 19.8354 177.824 19.8354C178.177 19.8354 178.462 20.1213 178.462 20.4738V28.0622C178.462 28.4148 178.177 28.7006 177.824 28.7006C177.471 28.7006 177.186 28.4148 177.186 28.0622V20.4738Z" fill="white"/>
<path d="M177.186 20.4738C177.186 20.1213 177.471 19.8354 177.824 19.8354C178.177 19.8354 178.462 20.1213 178.462 20.4738V28.0622C178.462 28.4148 178.177 28.7006 177.824 28.7006C177.471 28.7006 177.186 28.4148 177.186 28.0622V20.4738Z" stroke="white"/>
<path d="M220.498 21.5407C220.498 21.1882 220.784 20.9023 221.136 20.9023C221.489 20.9023 221.775 21.1882 221.775 21.5407V29.1291C221.775 29.4817 221.489 29.7675 221.136 29.7675C220.784 29.7675 220.498 29.4817 220.498 29.1291V21.5407Z" fill="white"/>
<path d="M220.498 21.5407C220.498 21.1882 220.784 20.9023 221.136 20.9023C221.489 20.9023 221.775 21.1882 221.775 21.5407V29.1291C221.775 29.4817 221.489 29.7675 221.136 29.7675C220.784 29.7675 220.498 29.4817 220.498 29.1291V21.5407Z" stroke="white"/>
<path d="M180.299 18.862C180.299 18.5094 180.585 18.2236 180.937 18.2236C181.29 18.2236 181.576 18.5094 181.576 18.862V30.0771C181.576 30.4297 181.29 30.7155 180.937 30.7155C180.585 30.7155 180.299 30.4297 180.299 30.0771V18.862Z" fill="white"/>
<path d="M180.299 18.862C180.299 18.5094 180.585 18.2236 180.937 18.2236C181.29 18.2236 181.576 18.5094 181.576 18.862V30.0771C181.576 30.4297 181.29 30.7155 180.937 30.7155C180.585 30.7155 180.299 30.4297 180.299 30.0771V18.862Z" stroke="white"/>
<path d="M223.609 19.9289C223.609 19.5763 223.895 19.2905 224.248 19.2905C224.6 19.2905 224.886 19.5763 224.886 19.9289V31.144C224.886 31.4966 224.6 31.7824 224.248 31.7824C223.895 31.7824 223.609 31.4966 223.609 31.144V19.9289Z" fill="white"/>
<path d="M223.609 19.9289C223.609 19.5763 223.895 19.2905 224.248 19.2905C224.6 19.2905 224.886 19.5763 224.886 19.9289V31.144C224.886 31.4966 224.6 31.7824 224.248 31.7824C223.895 31.7824 223.609 31.4966 223.609 31.144V19.9289Z" stroke="white"/>
<path d="M183.414 21.6828C183.414 21.3302 183.7 21.0444 184.052 21.0444C184.405 21.0444 184.691 21.3302 184.691 21.6828V26.4505C184.691 26.8031 184.405 27.0889 184.052 27.0889C183.7 27.0889 183.414 26.8031 183.414 26.4505V21.6828Z" fill="white"/>
<path d="M183.414 21.6828C183.414 21.3302 183.7 21.0444 184.052 21.0444C184.405 21.0444 184.691 21.3302 184.691 21.6828V26.4505C184.691 26.8031 184.405 27.0889 184.052 27.0889C183.7 27.0889 183.414 26.8031 183.414 26.4505V21.6828Z" stroke="white"/>
<path d="M226.723 22.7492C226.723 22.3967 227.008 22.1108 227.361 22.1108C227.714 22.1108 227.999 22.3967 227.999 22.7492V27.5169C227.999 27.8695 227.714 28.1553 227.361 28.1553C227.008 28.1553 226.723 27.8695 226.723 27.5169V22.7492Z" fill="white"/>
<path d="M226.723 22.7492C226.723 22.3967 227.008 22.1108 227.361 22.1108C227.714 22.1108 227.999 22.3967 227.999 22.7492V27.5169C227.999 27.8695 227.714 28.1553 227.361 28.1553C227.008 28.1553 226.723 27.8695 226.723 27.5169V22.7492Z" stroke="white"/>
</svg>
