<svg width="24" height="24" viewBox="0 0 24 24" fill="none" xmlns="http://www.w3.org/2000/svg">
<path d="M9.9 4.89V19.11C9.9 19.702 9.77174 19.9202 9.67078 20.0153C9.55836 20.1212 9.2959 20.25 8.64 20.25H5.01C4.3541 20.25 4.09164 20.1212 3.97922 20.0153C3.87826 19.9202 3.75 19.702 3.75 19.11V4.89C3.75 4.29797 3.87826 4.07981 3.97922 3.98471C4.09164 3.87883 4.3541 3.75 5.01 3.75H8.64C9.2959 3.75 9.55836 3.87883 9.67078 3.98471C9.77174 4.07981 9.9 4.29797 9.9 4.89Z" fill="#292D32" stroke="#393939" stroke-width="1.5"/>
<path d="M20.2496 4.89V19.11C20.2496 19.702 20.1214 19.9202 20.0204 20.0153C19.908 20.1212 19.6455 20.25 18.9896 20.25H15.3596C14.7037 20.25 14.4412 20.1212 14.3288 20.0153C14.2279 19.9202 14.0996 19.702 14.0996 19.11V4.89C14.0996 4.30111 14.2289 4.08196 14.3315 3.98571C14.4461 3.87824 14.7102 3.75 15.3596 3.75H18.9896C19.6455 3.75 19.908 3.87883 20.0204 3.98471C20.1214 4.07981 20.2496 4.29797 20.2496 4.89Z" fill="#292D32" stroke="#393939" stroke-width="1.5"/>
</svg>
