<svg width="24" height="24" viewBox="0 0 24 24" fill="none" xmlns="http://www.w3.org/2000/svg">
<path d="M18.0693 8.51013L9.50929 4.23013C3.75929 1.35013 1.39929 3.71013 4.27929 9.46013L5.14929 11.2001C5.39929 11.7101 5.39929 12.3001 5.14929 12.8101L4.27929 14.5401C1.39929 20.2901 3.74929 22.6501 9.50929 19.7701L18.0693 15.4901C21.9093 13.5701 21.9093 10.4301 18.0693 8.51013ZM14.8393 12.7501H9.43929C9.02929 12.7501 8.68929 12.4101 8.68929 12.0001C8.68929 11.5901 9.02929 11.2501 9.43929 11.2501H14.8393C15.2493 11.2501 15.5893 11.5901 15.5893 12.0001C15.5893 12.4101 15.2493 12.7501 14.8393 12.7501Z" fill="#279371"/>
</svg>
