<svg width="50" height="50" viewBox="0 0 50 50" fill="none" xmlns="http://www.w3.org/2000/svg">
<g clip-path="url(#clip0_779_5456)">
<rect width="50" height="50" rx="25" fill="white"/>
<g clip-path="url(#clip1_779_5456)">
<path d="M-16.6641 -3.33301H65.836V51.6676H-16.6641V-3.33301Z" fill="white"/>
<path d="M29.7422 -3.3374H19.4297V19.0063H-16.6641V29.3188H19.4297V51.6624H29.7422V29.3188H65.836V19.0063H29.7422V-3.3374Z" fill="#D80027"/>
<path d="M46.7846 33.7275L65.833 44.3101V33.7275H46.7846ZM33.5503 33.7275L65.833 51.6623V46.5908L42.6793 33.7275H33.5503ZM57.2339 51.6623L33.5503 38.5035V51.6623H57.2339Z" fill="#0052B4"/>
<path d="M33.5542 33.7275L65.8369 51.6623V46.5908L42.6832 33.7275H33.5542Z" fill="white"/>
<path d="M33.5542 33.7275L65.8369 51.6623V46.5908L42.6832 33.7275H33.5542Z" fill="#D80027"/>
<path d="M-2.10715 33.7275L-16.6641 41.8148V33.7275H-2.10715ZM15.6186 36.0082V51.6624H-12.5566L15.6186 36.0082Z" fill="#0052B4"/>
<path d="M6.48962 33.7275L-16.6641 46.5908V51.6623L15.6186 33.7275H6.48962Z" fill="#D80027"/>
<path d="M2.38427 14.5973L-16.6641 4.01477V14.5973H2.38427ZM15.6186 14.5973L-16.6641 -3.3374V1.7341L6.48962 14.5973H15.6186ZM-8.06504 -3.3374L15.6186 9.82136V-3.3374H-8.06504Z" fill="#0052B4"/>
<path d="M15.6186 14.5973L-16.6641 -3.3374V1.7341L6.48962 14.5973H15.6186Z" fill="white"/>
<path d="M15.6186 14.5973L-16.6641 -3.3374V1.7341L6.48962 14.5973H15.6186Z" fill="#D80027"/>
<path d="M51.276 14.5965L65.833 6.50926V14.5965H51.276ZM33.5503 12.3158V-3.33838H61.7255L33.5503 12.3158Z" fill="#0052B4"/>
<path d="M42.6832 14.5973L65.8369 1.7341V-3.3374L33.5542 14.5973H42.6832Z" fill="#D80027"/>
</g>
</g>
<defs>
<clipPath id="clip0_779_5456">
<rect width="50" height="50" rx="25" fill="white"/>
</clipPath>
<clipPath id="clip1_779_5456">
<rect width="82.5001" height="55" fill="white" transform="translate(-16.6641 -3.33301)"/>
</clipPath>
</defs>
</svg>
