<svg width="50" height="50" viewBox="0 0 50 50" fill="none" xmlns="http://www.w3.org/2000/svg">
<path d="M25 48.4375C37.9442 48.4375 48.4375 37.9442 48.4375 25C48.4375 12.0558 37.9442 1.5625 25 1.5625C12.0558 1.5625 1.5625 12.0558 1.5625 25C1.5625 37.9442 12.0558 48.4375 25 48.4375Z" fill="#ED4C5C"/>
<path d="M17.1875 22.1875L23.4375 26.5625L21.0938 19.375L27.3438 14.8438H19.6094L17.1875 7.8125L14.8438 14.8438H7.03125L13.2812 19.375L10.9375 26.5625L17.1875 22.1875ZM27.5781 27.5781L25.7812 27.9688L27.5 28.6719V30.4688L28.6719 29.1406L30.3906 29.7656L29.375 28.2812L30.4688 26.875L28.6719 27.2656L27.5781 25.7812V27.5781ZM30.2344 22.2656L28.9062 23.4375L30.7031 23.2812L31.4844 25L31.7969 23.2031L33.5938 23.0469L32.0312 22.1094L32.4219 20.3125L31.0938 21.4844L29.5312 20.5469L30.2344 22.2656ZM30.7031 16.1719L31.25 17.9688L31.7969 16.25H33.5938L32.1875 15.1562L32.7344 13.3594L31.25 14.4531L29.8438 13.2812L30.3906 15.0781L28.9062 16.0938L30.7031 16.1719ZM27.5781 9.92187V11.7188L28.6719 10.2344L30.4688 10.625L29.375 9.21875L30.3906 7.73437L28.6719 8.4375L27.5 7.03125V8.82813L25.7812 9.53125L27.5781 9.92187Z" fill="#FFE62E"/>
</svg>
