<svg width="50" height="50" viewBox="0 0 50 50" fill="none" xmlns="http://www.w3.org/2000/svg">
<path d="M24.9219 1.5625C14.6875 1.5625 6.01562 8.125 2.8125 17.1875H47.0312C43.8281 8.125 35.1562 1.5625 24.9219 1.5625Z" fill="#3E4347"/>
<path d="M24.9219 48.4375C35.1562 48.4375 43.8281 41.9531 47.0312 32.8125H2.8125C6.01562 41.9531 14.6875 48.4375 24.9219 48.4375Z" fill="#FFE62E"/>
<path d="M2.8125 17.1875C1.95312 19.6094 1.48438 22.2656 1.48438 25C1.48438 27.7344 1.95312 30.3906 2.8125 32.8125H47.0312C47.8906 30.3906 48.3594 27.7344 48.3594 25C48.3594 22.2656 47.8906 19.6094 47.0312 17.1875H2.8125Z" fill="#ED4C5C"/>
</svg>
