<svg width="50" height="50" viewBox="0 0 50 50" fill="none" xmlns="http://www.w3.org/2000/svg">
<g clip-path="url(#clip0_637_7398)">
<rect width="50" height="50" rx="25" fill="white"/>
<g clip-path="url(#clip1_637_7398)">
<path d="M-10.7456 -0.00292969H60.7502V51.1082H-10.7456V-0.00292969Z" fill="#181A93"/>
<path d="M-13.332 -0.00244141H63.3346V17.0346H-13.332V-0.00244141Z" fill="#FFA44A"/>
<path d="M-13.332 34.0693H63.3346V51.1064H-13.332V34.0693Z" fill="#1A9F0B"/>
<path d="M-13.332 17.0332H63.3346V34.0702H-13.332V17.0332Z" fill="white"/>
<path d="M25.0008 30.6622C27.8235 30.6622 30.1119 28.3738 30.1119 25.5511C30.1119 22.7283 27.8235 20.4399 25.0008 20.4399C22.178 20.4399 19.8896 22.7283 19.8896 25.5511C19.8896 28.3738 22.178 30.6622 25.0008 30.6622Z" fill="white"/>
<path d="M25.0028 32.3645C21.2517 32.3645 18.188 29.3008 18.188 25.5497C18.188 21.7985 21.2517 18.7349 25.0028 18.7349C28.7539 18.7349 31.8176 21.7985 31.8176 25.5497C31.8176 29.3008 28.7539 32.3645 25.0028 32.3645ZM25.0028 30.6608C27.7228 30.6608 30.1139 28.2696 30.1139 25.5497C30.1139 22.8297 27.7377 20.4386 25.0028 20.4386C22.2679 20.4386 19.8917 22.8297 19.8917 25.5497C19.8917 28.2696 22.2829 30.6608 25.0028 30.6608Z" fill="#181A93"/>
<path d="M24.9987 28.9598C26.8806 28.9598 28.4061 27.4343 28.4061 25.5524C28.4061 23.6706 26.8806 22.145 24.9987 22.145C23.1169 22.145 21.5913 23.6706 21.5913 25.5524C21.5913 27.4343 23.1169 28.9598 24.9987 28.9598Z" fill="#181A93"/>
</g>
</g>
<defs>
<clipPath id="clip0_637_7398">
<rect width="50" height="50" rx="25" fill="white"/>
</clipPath>
<clipPath id="clip1_637_7398">
<rect width="76.6667" height="51.1111" fill="white" transform="translate(-13.332 -0.00195312)"/>
</clipPath>
</defs>
</svg>
