<svg width="50" height="50" viewBox="0 0 50 50" fill="none" xmlns="http://www.w3.org/2000/svg">
<g clip-path="url(#clip0_637_7408)">
<rect width="50" height="50" rx="25" fill="white"/>
<g clip-path="url(#clip1_637_7408)">
<path d="M-6 0H75.332V54.2213H-6V0Z" fill="white"/>
<path d="M-6 0.00195312H75.332V3.87038H-6V0.00195312ZM-6 7.75466H75.332V11.6231H-6V7.75466ZM-6 15.4915H75.332V19.3599H-6V15.4915ZM-6 23.2442H75.332V27.1126H-6V23.2442ZM-6 30.9811H75.332V34.8495H-6V30.9811ZM-6 38.7338H75.332V42.6022H-6V38.7338ZM-6 46.4706H75.332V50.339H-6V46.4706Z" fill="#CC0000"/>
<path d="M-6 0H34.666V30.9791H-6V0Z" fill="#000066"/>
<path d="M18.3015 6.67816C13.4342 4.87078 8.02795 7.34404 6.22057 12.2113C4.41319 17.0785 6.88645 22.4848 11.7537 24.2922C13.8623 25.0849 16.1929 25.0849 18.3173 24.2922C13.4501 28.1765 6.36326 27.3996 2.46313 22.5324C-1.437 17.6651 -0.644294 10.5783 4.22294 6.67816C8.34504 3.39634 14.1952 3.39634 18.3015 6.67816ZM22.5345 18.5688L19.2686 22.2628L20.1247 17.4115L15.2099 17.1578L19.5381 14.7955L16.6685 10.7844L21.2028 12.6869L22.5345 7.9465L23.8663 12.6869L28.4006 10.7844L25.5468 14.8114L29.875 17.1736L24.9602 17.4273L25.8164 22.2787L22.5345 18.5688Z" fill="#FFCC00"/>
</g>
</g>
<defs>
<clipPath id="clip0_637_7408">
<rect width="50" height="50" rx="25" fill="white"/>
</clipPath>
<clipPath id="clip1_637_7408">
<rect width="81.332" height="54.2213" fill="white" transform="translate(-6)"/>
</clipPath>
</defs>
</svg>
