<svg width="50" height="50" viewBox="0 0 50 50" fill="none" xmlns="http://www.w3.org/2000/svg">
<g clip-path="url(#clip0_637_7413)">
<rect width="50" height="50" rx="25" fill="white"/>
<g clip-path="url(#clip1_637_7413)">
<path d="M-11.668 0H63.332V50H-11.668V0Z" fill="#D80027"/>
<path d="M21.492 34.9707L20.0739 32.69L17.4569 33.3333L19.1967 31.2719L17.7785 28.9912L20.2785 29.9999L22.0037 27.9385L21.8136 30.6286L24.3136 31.6374L21.6967 32.2806L21.492 34.9707ZM30.8195 11.9882L29.3429 14.2397L31.0388 16.3303L28.451 15.6286L26.9744 17.8947L26.8282 15.2046L24.2405 14.5029L26.7551 13.5379L26.6089 10.8479L28.3048 12.9385L30.8195 11.9882ZM22.8662 3.71338L22.5739 6.38882L25.03 7.49993L22.3984 8.05548L22.106 10.7309L20.761 8.39174L18.144 8.9473L19.9423 6.94437L18.5972 4.61981L21.0534 5.7163L22.8662 3.71338ZM31.1411 23.6549L28.9627 25.2485L29.8107 27.8069L27.6323 26.228L25.454 27.8362L26.2727 25.2631L24.0943 23.6988L26.7844 23.6841L27.6031 21.111L28.451 23.6695L31.1411 23.6549ZM5.14695 6.76893L7.67619 14.5906H15.8926L9.25514 19.4005L11.7844 27.2222L5.14695 22.3976L-1.50509 27.2222L1.03877 19.4005L-5.61328 14.5906H2.61771L5.14695 6.76893Z" fill="#FFDA44"/>
</g>
</g>
<defs>
<clipPath id="clip0_637_7413">
<rect width="50" height="50" rx="25" fill="white"/>
</clipPath>
<clipPath id="clip1_637_7413">
<rect width="75" height="50" fill="white" transform="translate(-11.668)"/>
</clipPath>
</defs>
</svg>
