<svg width="50" height="50" viewBox="0 0 50 50" fill="none" xmlns="http://www.w3.org/2000/svg">
<g clip-path="url(#clip0_637_7423)">
<rect width="50" height="50" rx="25" fill="white"/>
<g clip-path="url(#clip1_637_7423)">
<path d="M-11.668 0.00146484H63.332V50.0004H-11.668V0.00146484Z" fill="#D80027"/>
<path d="M17.1369 0.00146484V50.0004H-11.668V0.00146484H17.1369Z" fill="#6DA544"/>
<path d="M17.1372 34.376C22.3149 34.376 26.5122 30.1786 26.5122 25.001C26.5122 19.8233 22.3149 15.626 17.1372 15.626C11.9595 15.626 7.76221 19.8233 7.76221 25.001C7.76221 30.1786 11.9595 34.376 17.1372 34.376Z" fill="#FFDA44"/>
<path d="M11.8638 20.311V26.1706C11.8638 29.083 14.2248 31.444 17.1372 31.444C20.0496 31.444 22.4106 29.083 22.4106 26.1706V20.311H11.8638Z" fill="#D80027"/>
<path d="M17.1372 27.9307C16.1679 27.9307 15.3794 27.1421 15.3794 26.1729V23.8291H18.8952V26.1729C18.895 27.142 18.1063 27.9307 17.1372 27.9307Z" fill="white"/>
</g>
</g>
<defs>
<clipPath id="clip0_637_7423">
<rect width="50" height="50" rx="25" fill="white"/>
</clipPath>
<clipPath id="clip1_637_7423">
<rect width="75" height="50" fill="white" transform="translate(-11.668)"/>
</clipPath>
</defs>
</svg>
