<svg width="50" height="50" viewBox="0 0 50 50" fill="none" xmlns="http://www.w3.org/2000/svg">
<path d="M1.5625 25C1.5625 35.2344 8.125 43.9062 17.1875 47.1094V2.89062C8.125 6.09375 1.5625 14.7656 1.5625 25Z" fill="#ED4C5C"/>
<path d="M25 1.5625C22.2656 1.5625 19.6094 2.03125 17.1875 2.89062V17.1875H47.1094C43.9062 8.125 35.2344 1.5625 25 1.5625Z" fill="#699635"/>
<path d="M47.1094 17.1875H17.1875V32.8125H47.1094C47.9688 30.3906 48.4375 27.7344 48.4375 25C48.4375 22.2656 47.9688 19.6094 47.1094 17.1875Z" fill="#F9F9F9"/>
<path d="M17.1875 32.8125V47.1094C19.6094 47.9687 22.2656 48.4375 25 48.4375C35.2344 48.4375 43.9062 41.9531 47.1094 32.8125H17.1875Z" fill="#3E4347"/>
</svg>
