<svg width="50" height="50" viewBox="0 0 50 50" fill="none" xmlns="http://www.w3.org/2000/svg">
<path d="M37.5 5.15625C33.8281 2.89062 29.6094 1.5625 25 1.5625V5.15625H37.5Z" fill="#ED4C5C"/>
<path d="M25 8.75H41.875C40.5469 7.42188 39.0625 6.17188 37.5 5.15625H25V8.75Z" fill="white"/>
<path d="M25 12.3438H44.7656C43.9062 11.0156 42.9688 9.84375 41.9531 8.75H25V12.3438Z" fill="#ED4C5C"/>
<path d="M25 15.9375H46.6406C46.0938 14.6875 45.4688 13.4375 44.7656 12.3438H25V15.9375Z" fill="white"/>
<path d="M25 19.5313H47.8125C47.5 18.2813 47.1094 17.1094 46.6406 15.9375H25V19.5313Z" fill="#ED4C5C"/>
<path d="M25 23.2031H48.3594C48.2813 21.9531 48.0469 20.7812 47.8125 19.6094H25V23.2031Z" fill="white"/>
<path d="M48.3594 23.2031H25V25H1.5625C1.5625 25.625 1.5625 26.1719 1.64062 26.7969H48.3594C48.4375 26.1719 48.4375 25.625 48.4375 25C48.4375 24.375 48.4375 23.75 48.3594 23.2031Z" fill="#ED4C5C"/>
<path d="M2.1875 30.3906H47.8125C48.125 29.2188 48.2813 28.0469 48.3594 26.7969H1.64062C1.71875 27.9688 1.95313 29.2188 2.1875 30.3906Z" fill="white"/>
<path d="M3.35938 33.9844H46.6406C47.1094 32.8125 47.5 31.6406 47.8125 30.3906H2.1875C2.5 31.6406 2.89063 32.8125 3.35938 33.9844Z" fill="#ED4C5C"/>
<path d="M5.23437 37.5781H44.7656C45.4688 36.4062 46.0938 35.2344 46.6406 33.9844H3.35938C3.90625 35.2344 4.53125 36.4062 5.23437 37.5781Z" fill="white"/>
<path d="M8.04688 41.1719H41.9531C42.9688 40.0781 43.9844 38.8281 44.7656 37.5781H5.23438C6.01562 38.9062 7.03125 40.0781 8.04688 41.1719Z" fill="#ED4C5C"/>
<path d="M12.4219 44.7656H37.5781C39.2188 43.75 40.625 42.5 41.9531 41.1719H8.04688C9.375 42.5781 10.8594 43.75 12.4219 44.7656Z" fill="white"/>
<path d="M25 48.4375C29.6094 48.4375 33.9062 47.1094 37.5781 44.7656H12.4219C16.0937 47.1094 20.3906 48.4375 25 48.4375Z" fill="#ED4C5C"/>
<path d="M12.5 5.15625C10.8594 6.17188 9.375 7.42188 8.04688 8.75C6.95312 9.84375 6.01562 11.0938 5.23437 12.3438C4.53125 13.5156 3.82813 14.6875 3.35938 15.9375C2.89063 17.1094 2.5 18.2812 2.1875 19.5312C1.875 20.7031 1.71875 21.875 1.64062 23.125C1.5625 23.75 1.5625 24.375 1.5625 25H25V1.5625C20.3906 1.5625 16.1719 2.89062 12.5 5.15625Z" fill="#428BC1"/>
<path d="M19.5312 2.34375L19.9219 3.51562H21.0938L20.1562 4.29688L20.4688 5.46875L19.5312 4.76562L18.5938 5.46875L18.9062 4.29688L17.9688 3.51562H19.1406L19.5312 2.34375ZM22.6562 7.03125L23.0469 8.20312H24.2188L23.2812 8.98438L23.5938 10.1562L22.6562 9.45313L21.7188 10.1562L22.0312 8.98438L21.0938 8.20312H22.2656L22.6562 7.03125ZM16.4062 7.03125L16.7969 8.20312H17.9688L17.0312 8.98438L17.3438 10.1562L16.4062 9.45313L15.4688 10.1562L15.7813 8.98438L14.8438 8.20312H16.0156L16.4062 7.03125ZM19.5312 11.7188L19.9219 12.8906H21.0938L20.1562 13.6719L20.4688 14.8438L19.5312 14.1406L18.5938 14.8438L18.9062 13.6719L17.9688 12.8906H19.1406L19.5312 11.7188ZM13.2812 11.7188L13.6719 12.8906H14.8438L13.9062 13.6719L14.2188 14.8438L13.2812 14.1406L12.3438 14.8438L12.6563 13.6719L11.7188 12.8906H12.8906L13.2812 11.7188ZM7.03125 11.7188L7.42188 12.8906H8.59375L7.65625 13.6719L7.96875 14.8438L7.03125 14.1406L6.09375 14.8438L6.40625 13.6719L5.46875 12.8906H6.64062L7.03125 11.7188ZM22.6562 16.4062L23.0469 17.5781H24.2188L23.2812 18.3594L23.5938 19.5312L22.6562 18.8281L21.7188 19.5312L22.0312 18.3594L21.0938 17.5781H22.2656L22.6562 16.4062ZM16.4062 16.4062L16.7969 17.5781H17.9688L17.0312 18.3594L17.3438 19.5312L16.4062 18.8281L15.4688 19.5312L15.7813 18.3594L14.8438 17.5781H16.0156L16.4062 16.4062ZM10.1563 16.4062L10.5469 17.5781H11.7188L10.7812 18.3594L11.0937 19.5312L10.1563 18.8281L9.21875 19.5312L9.53125 18.3594L8.59375 17.5781H9.76563L10.1563 16.4062ZM19.5312 21.0938L19.9219 22.2656H21.0938L20.1562 23.0469L20.4688 24.2188L19.5312 23.5156L18.5938 24.2188L18.9062 23.0469L17.9688 22.2656H19.1406L19.5312 21.0938ZM13.2812 21.0938L13.6719 22.2656H14.8438L13.9062 23.0469L14.2188 24.2188L13.2812 23.5156L12.3438 24.2188L12.6563 23.0469L11.7188 22.2656H12.8906L13.2812 21.0938ZM7.03125 21.0938L7.42188 22.2656H8.59375L7.65625 23.0469L7.96875 24.2188L7.03125 23.5156L6.09375 24.2188L6.40625 23.0469L5.46875 22.2656H6.64062L7.03125 21.0938ZM9.21875 10.1562L10.1563 9.45313L11.0937 10.1562L10.7031 8.98438L11.6406 8.20312H10.4688L10.1563 7.03125L9.76563 8.20312H8.67188L9.60937 8.90625L9.21875 10.1562ZM2.96875 19.5312L3.90625 18.8281L4.84375 19.5312L4.45312 18.3594L5.39062 17.5781H4.29687L3.90625 16.4062L3.51562 17.5781H2.73437C2.73437 17.6562 2.65625 17.7344 2.65625 17.8125L3.28125 18.2812L2.96875 19.5312Z" fill="white"/>
</svg>
