<svg width="179" height="49" viewBox="0 0 179 49" fill="none" xmlns="http://www.w3.org/2000/svg">
<path d="M25.7996 36.2951C22.2996 34.9951 18.6996 34.7951 15.3996 35.6951C13.0996 36.2951 10.8996 37.4951 8.89963 38.9951L7.4996 40.1951L7.09961 40.5951L7.9996 41.3951C8.0996 41.3951 8.09962 41.4951 8.19962 41.5951C8.39962 41.7951 8.59963 41.8951 8.89963 42.0951L9.4996 42.4951L10.0996 41.9951C10.1996 41.8951 10.3996 41.6951 10.5996 41.5951C12.3996 40.0951 14.3996 39.0951 16.4996 38.5951C19.1996 37.8951 22.0996 37.9951 24.9996 39.0951C27.3996 39.9951 32.2996 41.0951 38.1996 38.5951L38.3996 38.4951L38.6996 38.1951C38.6996 38.0951 38.7996 38.0951 38.8996 37.9951C39.3996 37.3951 39.8996 36.7951 40.2996 36.0951L42.2996 32.9951L39.0996 34.7951C34.3996 37.3951 30.0996 37.8951 25.7996 36.2951Z" fill="#155EEF"/>
<path d="M12.1 25.4954C14.8 24.7954 17.7 24.8954 20.6 25.9954C23.8 27.1954 32 28.8954 41.2 20.5954L42.7 19.0954L42.8 18.9954L43.2 18.5954L43 18.0954C42.9 17.6954 42.7 17.1954 42.5 16.6954L42 15.2954L41 16.2954C40.9 16.4954 40.7 16.5954 40.5 16.7954C36.1 21.2954 29.3 25.8954 21.5 23.0954C18 21.7954 14.4 21.5954 11.1 22.4954C7.90001 23.3954 5.1 25.0954 2.5 27.4954V27.3954L1 28.9954C1 29.0954 0.900018 29.0954 0.800018 29.1954L0.5 29.4954L0.600006 29.8954C0.700006 30.3954 0.9 30.8954 1 31.3954L1.60001 32.9954L2.60001 31.6954C2.70001 31.4954 2.9 31.3954 3 31.1954C5.1 29.2954 8.00001 26.5954 12.1 25.4954Z" fill="#155EEF"/>
<path d="M2.40002 23.6954C4.70002 21.2954 7.30001 19.7954 10.1 18.9954C12.8 18.2954 15.7 18.3954 18.6 19.4954C27.6 22.7954 35.4 17.3954 38.8 14.4954L40.1 13.1954L40.6 12.7954L40.2 12.1954C39.9 11.8954 39.7 11.4954 39.4 11.0954L38.8 10.2954L38.1 10.9954C38 11.0954 37.8 11.2954 37.7 11.3954C33.5 15.3954 27 19.4954 19.6 16.6954C16.1 15.3954 12.5 15.1954 9.20001 16.0954C7.10001 16.6954 5.10001 17.6954 3.10001 18.9954L1 20.6954C0.8 20.8954 0.7 20.9954 0.5 21.1954L0.300018 21.3954V21.6954C0.200018 22.3954 0.200006 23.0954 0.100006 23.6954L0 26.1954L1.70001 24.3954C1.90001 24.1954 2.10002 23.8954 2.40002 23.6954Z" fill="#155EEF"/>
<path d="M28.7004 43.0953L28.5004 43.6953L28.7004 43.0953C28.4004 42.9953 28.2004 42.8953 27.9004 42.7953C24.4004 41.4953 20.8004 41.2953 17.5004 42.1953C16.8004 42.3953 16.1004 42.5953 15.4004 42.8953L13.0004 43.9953L12.4004 44.2953L14.4004 44.9953C15.0004 45.1953 15.6004 45.3953 16.2004 45.5953L16.5004 45.6953L16.8004 45.5953C17.1004 45.4953 17.4004 45.2953 17.7004 45.2953C17.9004 45.2953 18.1004 45.1953 18.3004 45.0953C20.7004 44.4953 23.3004 44.4953 26.1004 45.3953C26.4004 45.4953 26.6004 45.5953 26.9004 45.6953L27.4004 45.8953L27.7004 45.7953C28.4004 45.5953 29.2004 45.3953 29.8004 45.0953L32.6004 44.0953L29.7004 43.3953C29.4004 43.2953 29.0004 43.1953 28.7004 43.0953Z" fill="#155EEF"/>
<path d="M43.9998 22.3955L42.4998 23.8955C42.2998 24.0955 42.0998 24.2955 41.8998 24.4955C37.7998 28.3955 31.1998 32.5955 23.7998 29.7955C20.2998 28.4955 16.6998 28.2955 13.3998 29.1955C10.2998 30.0955 7.49979 31.6955 4.99979 34.0955L3.6998 35.4955L3.2998 35.9955L3.6998 36.5955C3.9998 36.9955 4.19981 37.2955 4.39981 37.6955L4.99979 38.5955L5.6998 37.6955C5.7998 37.5955 5.99979 37.3955 6.09979 37.2955C8.49979 34.6955 11.0998 33.0955 14.0998 32.2955C16.7998 31.5955 19.6998 31.6955 22.5998 32.7955C25.0998 33.6955 27.6998 33.9955 30.2998 33.6955C34.8998 33.1955 39.4998 30.5955 42.8998 27.6955C43.0998 27.4955 43.2998 27.3955 43.4998 27.1955L43.7998 26.8955V26.5955C43.7998 25.9955 43.8998 25.2955 43.8998 24.6955L43.9998 22.3955Z" fill="#155EEF"/>
<path d="M6.00018 13.1957L5.7002 12.5957L6.00018 13.1957C6.60018 12.8957 7.30021 12.6957 7.90021 12.4957C10.6002 11.7957 13.5002 11.8957 16.4002 12.9957C18.3002 13.6957 20.2002 13.9957 22.3002 13.9957C26.5002 13.9957 30.7002 12.4957 34.6002 9.5957L36.1002 8.39569L36.6002 7.9957L35.7002 7.29568C35.4002 6.99568 35.0002 6.6957 34.6002 6.4957L34.0002 6.0957L33.5002 6.4957C33.3002 6.5957 33.2002 6.79569 33.0002 6.89569C27.7002 10.8957 22.4002 11.9957 17.4002 10.0957C13.8002 8.7957 10.2002 8.4957 6.60019 9.5957C6.30019 9.6957 6.00019 9.79569 5.60019 9.89569L5.40021 9.9957L5.10019 10.2957C5.10019 10.3957 5.00021 10.3957 4.90021 10.4957C4.50021 11.0957 4.00019 11.5957 3.60019 12.1957L1.7002 15.0957L4.8002 13.4957C5.3002 13.4957 5.70018 13.2957 6.00018 13.1957Z" fill="#155EEF"/>
<path d="M14.2 6.39529L14.5 6.4953C15.8 6.9953 17.8 7.4953 20.3 7.4953C22.9 7.4953 25.4 6.89529 27.9 5.89529L31 4.39529L28.9 3.69531C28.3 3.49531 27.7 3.29531 27 3.19531H26.7L26.4 3.29529C26.1 3.39529 25.8 3.59531 25.5 3.69531C22.5 4.79531 19.5 4.99531 16.6 4.19531C16.3 4.09531 16 3.99529 15.7 3.89529L15.4 3.79529L15.1 3.89529C14.5 4.09529 13.9 4.29531 13.3 4.59531L11 5.59531L13.4 6.29529C13.6 6.19529 13.9 6.29529 14.2 6.39529Z" fill="#155EEF"/>
<path d="M61.2797 34.4171H56.666L63.6958 14.0535H69.2441L76.264 34.4171H71.6504L66.5495 18.7069H66.3904L61.2797 34.4171ZM60.9913 26.4129H71.889V29.7737H60.9913V26.4129Z" fill="#101828"/>
<path d="M82.8713 14.0535V34.4171H78.6355V14.0535H82.8713Z" fill="#101828"/>
<path d="M94.388 19.1444V22.3262H85.1905V19.1444H94.388ZM87.2786 15.4853H91.5144V29.7239C91.5144 30.115 91.574 30.42 91.6934 30.6387C91.8127 30.8508 91.9784 31 92.1905 31.0862C92.4093 31.1723 92.6612 31.2154 92.9462 31.2154C93.1451 31.2154 93.3439 31.1989 93.5428 31.1657C93.7417 31.1259 93.8941 31.0961 94.0002 31.0762L94.6664 34.2282C94.4543 34.2945 94.156 34.3707 93.7715 34.4569C93.387 34.5497 92.9197 34.606 92.3695 34.6259C91.3487 34.6657 90.4538 34.5298 89.6848 34.2183C88.9225 33.9067 88.3292 33.4228 87.905 32.7666C87.4808 32.1103 87.272 31.2817 87.2786 30.2808V15.4853Z" fill="#101828"/>
<path d="M102.728 33.3134V19.2339H106.287V33.3134H102.728ZM97.4679 28.0535V24.4938H111.547V28.0535H97.4679Z" fill="#101828"/>
<path d="M126.84 19.91C126.76 19.1079 126.419 18.4848 125.816 18.0407C125.213 17.5966 124.394 17.3745 123.36 17.3745C122.657 17.3745 122.064 17.4739 121.58 17.6728C121.096 17.865 120.725 18.1335 120.466 18.4782C120.215 18.8229 120.089 19.214 120.089 19.6515C120.075 20.0161 120.152 20.3343 120.317 20.606C120.49 20.8778 120.725 21.1131 121.023 21.312C121.322 21.5042 121.666 21.6733 122.057 21.8191C122.448 21.9583 122.866 22.0776 123.31 22.1771L125.14 22.6146C126.028 22.8134 126.843 23.0786 127.586 23.41C128.328 23.7415 128.971 24.1491 129.515 24.633C130.058 25.1169 130.479 25.687 130.778 26.3433C131.082 26.9995 131.238 27.7519 131.245 28.6004C131.238 29.8466 130.92 30.9271 130.29 31.8418C129.667 32.75 128.766 33.456 127.586 33.9597C126.412 34.4569 124.997 34.7055 123.34 34.7055C121.696 34.7055 120.264 34.4536 119.045 33.9498C117.831 33.446 116.884 32.7003 116.201 31.7126C115.525 30.7183 115.17 29.4886 115.137 28.0237H119.303C119.349 28.7064 119.545 29.2765 119.89 29.7339C120.241 30.1846 120.708 30.526 121.292 30.758C121.882 30.9834 122.548 31.0961 123.29 31.0961C124.019 31.0961 124.653 30.99 125.189 30.7779C125.733 30.5658 126.154 30.2708 126.452 29.893C126.751 29.5151 126.9 29.081 126.9 28.5904C126.9 28.133 126.764 27.7486 126.492 27.437C126.227 27.1255 125.836 26.8603 125.319 26.6416C124.808 26.4228 124.182 26.2239 123.439 26.045L121.222 25.4881C119.505 25.0705 118.15 24.4176 117.155 23.5293C116.161 22.6411 115.667 21.4446 115.674 19.9399C115.667 18.7069 115.995 17.6297 116.658 16.7083C117.328 15.7869 118.246 15.0677 119.412 14.5506C120.579 14.0336 121.905 13.7751 123.39 13.7751C124.901 13.7751 126.22 14.0336 127.347 14.5506C128.481 15.0677 129.362 15.7869 129.992 16.7083C130.622 17.6297 130.947 18.697 130.966 19.91H126.84Z" fill="#101828"/>
<path d="M138.297 25.5876V34.4171H134.061V14.0535H138.178V21.839H138.357C138.701 20.9375 139.258 20.2315 140.027 19.7211C140.796 19.2041 141.761 18.9455 142.921 18.9455C143.981 18.9455 144.906 19.1775 145.695 19.6416C146.49 20.0989 147.107 20.7585 147.544 21.6203C147.988 22.4754 148.207 23.4995 148.2 24.6927V34.4171H143.965V25.4484C143.971 24.5071 143.733 23.7746 143.249 23.2509C142.771 22.7273 142.102 22.4654 141.24 22.4654C140.664 22.4654 140.153 22.5881 139.709 22.8333C139.271 23.0786 138.927 23.4365 138.675 23.9072C138.43 24.3712 138.304 24.9313 138.297 25.5876Z" fill="#101828"/>
<path d="M151.534 34.4171V19.1444H155.77V34.4171H151.534ZM153.662 17.1756C153.032 17.1756 152.492 16.9668 152.041 16.5492C151.597 16.125 151.375 15.6179 151.375 15.0279C151.375 14.4446 151.597 13.9441 152.041 13.5265C152.492 13.1023 153.032 12.8901 153.662 12.8901C154.291 12.8901 154.828 13.1023 155.273 13.5265C155.723 13.9441 155.949 14.4446 155.949 15.0279C155.949 15.6179 155.723 16.125 155.273 16.5492C154.828 16.9668 154.291 17.1756 153.662 17.1756Z" fill="#101828"/>
<path d="M168.89 19.1444V22.3262H157.95V19.1444H168.89ZM160.107 34.4171V18.0407C160.107 16.9337 160.323 16.0156 160.754 15.2864C161.191 14.5573 161.788 14.0104 162.544 13.6458C163.299 13.2812 164.158 13.0989 165.119 13.0989C165.768 13.0989 166.362 13.1487 166.899 13.2481C167.442 13.3475 167.847 13.437 168.112 13.5166L167.356 16.6984C167.19 16.6453 166.985 16.5956 166.74 16.5492C166.501 16.5028 166.256 16.4796 166.004 16.4796C165.381 16.4796 164.946 16.6255 164.701 16.9171C164.456 17.2022 164.333 17.6032 164.333 18.1203V34.4171H160.107Z" fill="#101828"/>
<path d="M178.087 19.1444V22.3262H168.89V19.1444H178.087ZM170.978 15.4853H175.214V29.7239C175.214 30.115 175.273 30.42 175.393 30.6387C175.512 30.8508 175.678 31 175.89 31.0862C176.108 31.1723 176.36 31.2154 176.645 31.2154C176.844 31.2154 177.043 31.1989 177.242 31.1657C177.441 31.1259 177.593 31.0961 177.699 31.0762L178.366 34.2282C178.153 34.2945 177.855 34.3707 177.471 34.4569C177.086 34.5497 176.619 34.606 176.069 34.6259C175.048 34.6657 174.153 34.5298 173.384 34.2183C172.622 33.9067 172.028 33.4228 171.604 32.7666C171.18 32.1103 170.971 31.2817 170.978 30.2808V15.4853Z" fill="#101828"/>
</svg>
