<svg width="160" height="49" viewBox="0 0 160 49" fill="none" xmlns="http://www.w3.org/2000/svg">
<path d="M22 2.50781C9.84969 2.50781 0 12.3575 0 24.5078C0 36.6581 9.84969 46.5078 22 46.5078C32.901 46.5078 41.9502 38.5794 43.6958 28.1745H43.5379C41.9098 34.5003 36.1674 39.1745 29.3333 39.1745C21.2332 39.1745 14.6667 32.608 14.6667 24.5078C14.6667 16.4076 21.2332 9.84115 29.3333 9.84115C36.1674 9.84115 41.9098 14.5153 43.5379 20.8411H43.6958C41.9502 10.4362 32.901 2.50781 22 2.50781Z" fill="#A4BCFD"/>
<path d="M0 24.5078C0 12.3575 9.84974 2.50781 22 2.50781C32.901 2.50781 41.9502 10.4362 43.6958 20.8411H28.8713C27.2431 14.5153 21.5007 9.84115 14.6667 9.84115C6.56649 9.84115 0 16.4076 0 24.5078Z" fill="#3538CD"/>
<path d="M0 24.5078C0 36.6581 9.84974 46.5078 22 46.5078C32.901 46.5078 41.9502 38.5794 43.6958 28.1745H28.8713C27.2431 34.5003 21.5007 39.1745 14.6667 39.1745C6.56649 39.1745 0 32.608 0 24.5078Z" fill="#3538CD"/>
<path d="M75.4396 21.0149C74.8132 16.4907 71.3331 13.8657 66.8189 13.8657C61.4993 13.8657 57.4922 17.7436 57.4922 24.326C57.4922 30.8984 61.4496 34.7862 66.8189 34.7862C71.6612 34.7862 74.8729 31.6541 75.4396 27.7663L71.7209 27.7464C71.2535 30.1328 69.3047 31.4751 66.8686 31.4751C63.5675 31.4751 61.201 28.9992 61.201 24.326C61.201 19.7322 63.5476 17.1768 66.8785 17.1768C69.3544 17.1768 71.2933 18.5788 71.7209 21.0149H75.4396Z" fill="#101828"/>
<path d="M83.0536 34.816C85.4499 34.816 86.8817 33.6924 87.538 32.4098H87.6573V34.5078H91.1175V24.2862C91.1175 20.2492 87.8263 19.0362 84.913 19.0362C81.7013 19.0362 79.2354 20.468 78.44 23.2521L81.8008 23.7294C82.1587 22.6853 83.1729 21.7904 84.9329 21.7904C86.6033 21.7904 87.5181 22.6456 87.5181 24.147V24.2066C87.5181 25.2407 86.4343 25.2904 83.7397 25.5788C80.7766 25.897 77.9428 26.7819 77.9428 30.2223C77.9428 33.2251 80.1403 34.816 83.0536 34.816ZM83.9883 32.1711C82.4869 32.1711 81.413 31.485 81.413 30.1626C81.413 28.7805 82.6161 28.2038 84.2269 27.9751C85.1715 27.8458 87.0607 27.6072 87.528 27.2294V29.0291C87.528 30.7294 86.1559 32.1711 83.9883 32.1711Z" fill="#101828"/>
<path d="M102.363 19.235H99.3505V15.576H95.7511V19.235H93.5834V22.0191H95.7511V30.5106C95.7312 33.3842 97.8192 34.7961 100.524 34.7166C101.548 34.6867 102.254 34.4879 102.642 34.3586L102.035 31.5447C101.836 31.5944 101.429 31.6839 100.981 31.6839C100.076 31.6839 99.3505 31.3657 99.3505 29.914V22.0191H102.363V19.235Z" fill="#101828"/>
<path d="M109.768 34.816C112.165 34.816 113.597 33.6924 114.253 32.4098H114.372V34.5078H117.832V24.2862C117.832 20.2492 114.541 19.0362 111.628 19.0362C108.416 19.0362 105.95 20.468 105.155 23.2521L108.516 23.7294C108.874 22.6853 109.888 21.7904 111.648 21.7904C113.318 21.7904 114.233 22.6456 114.233 24.147V24.2066C114.233 25.2407 113.149 25.2904 110.455 25.5788C107.491 25.897 104.658 26.7819 104.658 30.2223C104.658 33.2251 106.855 34.816 109.768 34.816ZM110.703 32.1711C109.202 32.1711 108.128 31.485 108.128 30.1626C108.128 28.7805 109.331 28.2038 110.942 27.9751C111.886 27.8458 113.776 27.6072 114.243 27.2294V29.0291C114.243 30.7294 112.871 32.1711 110.703 32.1711Z" fill="#101828"/>
<path d="M125.051 14.1441H121.452V34.5078H125.051V14.1441Z" fill="#101828"/>
<path d="M135.414 34.8061C139.889 34.8061 142.733 31.6541 142.733 26.9311C142.733 22.1981 139.889 19.0362 135.414 19.0362C130.94 19.0362 128.096 22.1981 128.096 26.9311C128.096 31.6541 130.94 34.8061 135.414 34.8061ZM135.434 31.9225C132.958 31.9225 131.745 29.7152 131.745 26.9211C131.745 24.1271 132.958 21.8899 135.434 21.8899C137.87 21.8899 139.083 24.1271 139.083 26.9211C139.083 29.7152 137.87 31.9225 135.434 31.9225Z" fill="#101828"/>
<path d="M152.43 40.5532C156.556 40.5532 159.599 38.664 159.599 34.7563V19.235H156.049V21.7606H155.85C155.303 20.6569 154.16 19.0362 151.465 19.0362C147.935 19.0362 145.161 21.8004 145.161 26.8217C145.161 31.8032 147.935 34.289 151.455 34.289C154.07 34.289 155.293 32.887 155.85 31.7635H156.029V34.6569C156.029 36.9041 154.538 37.8288 152.489 37.8288C150.322 37.8288 149.367 36.8046 148.93 35.9098L145.688 36.6953C146.344 38.8331 148.542 40.5532 152.43 40.5532ZM152.459 31.4652C150.083 31.4652 148.83 29.6157 148.83 26.8018C148.83 24.0277 150.063 21.9893 152.459 21.9893C154.776 21.9893 156.049 23.9083 156.049 26.8018C156.049 29.7152 154.756 31.4652 152.459 31.4652Z" fill="#101828"/>
</svg>
