<svg width="46" height="46" viewBox="0 0 46 46" fill="none" xmlns="http://www.w3.org/2000/svg">
<rect width="46" height="46" rx="23" fill="#E8DDF2"/>
<path d="M34.6668 28.5303V14.4486C34.6668 13.0486 33.5235 12.0103 32.1352 12.127H32.0652C29.6152 12.337 25.8935 13.5853 23.8168 14.892L23.6185 15.0203C23.2802 15.2303 22.7202 15.2303 22.3818 15.0203L22.0902 14.8453C20.0135 13.5503 16.3035 12.3136 13.8535 12.1153C12.4652 11.9986 11.3335 13.0486 11.3335 14.437V28.5303C11.3335 29.6503 12.2435 30.7003 13.3635 30.8403L13.7018 30.887C16.2335 31.2253 20.1418 32.5086 22.3818 33.7336L22.4285 33.757C22.7435 33.932 23.2452 33.932 23.5485 33.757C25.7885 32.5203 29.7085 31.2253 32.2518 30.887L32.6368 30.8403C33.7568 30.7003 34.6668 29.6503 34.6668 28.5303Z" stroke="#5D387F" stroke-width="1.5" stroke-linecap="round" stroke-linejoin="round"/>
<path d="M23 15.4053V32.9053" stroke="#5D387F" stroke-width="1.5" stroke-linecap="round" stroke-linejoin="round"/>
<path d="M18.0415 18.9053H15.4165" stroke="#5D387F" stroke-width="1.5" stroke-linecap="round" stroke-linejoin="round"/>
<path d="M18.9165 22.4053H15.4165" stroke="#5D387F" stroke-width="1.5" stroke-linecap="round" stroke-linejoin="round"/>
</svg>
