<svg width="167" height="49" viewBox="0 0 167 49" fill="none" xmlns="http://www.w3.org/2000/svg">
<path fill-rule="evenodd" clip-rule="evenodd" d="M19.7655 3.95583C19.2605 3.85196 18.7396 3.85196 18.2345 3.95583C17.6507 4.0759 17.1289 4.36816 16.7141 4.60051L16.601 4.66368L2.54153 12.4745C2.50266 12.4961 2.46261 12.5182 2.42157 12.5408C1.98243 12.7826 1.43029 13.0868 1.00627 13.5469C0.639674 13.9447 0.362246 14.4162 0.192535 14.9298C-0.00375985 15.5239 -0.00146325 16.1543 0.000363158 16.6556C0.000533889 16.7025 0.000700421 16.7482 0.000700421 16.7927V32.2146C0.000700421 32.2591 0.000533889 32.3048 0.000363158 32.3517C-0.00146325 32.853 -0.00375985 33.4834 0.192536 34.0775C0.362247 34.5911 0.639677 35.0626 1.00627 35.4604C1.43029 35.9205 1.98244 36.2247 2.42157 36.4665C2.46261 36.4891 2.50266 36.5112 2.54153 36.5328L16.601 44.3436L16.7141 44.4068C17.1289 44.6391 17.6507 44.9314 18.2345 45.0515C18.7396 45.1553 19.2605 45.1553 19.7655 45.0515C20.3493 44.9314 20.8711 44.6391 21.2859 44.4068L21.399 44.3436L35.4585 36.5328C35.4757 36.5232 35.4931 36.5136 35.5107 36.5039C35.5329 36.4916 35.5555 36.4791 35.5784 36.4665C36.0176 36.2247 36.5697 35.9205 36.9937 35.4604C37.3603 35.0626 37.6378 34.5911 37.8075 34.0775C38.0038 33.4834 38.0015 32.853 37.9996 32.3516C37.9995 32.3048 37.9993 32.2591 37.9993 32.2146V16.7927C37.9993 16.7482 37.9995 16.7025 37.9996 16.6556C38.0015 16.1543 38.0038 15.5239 37.8075 14.9298C37.6378 14.4162 37.3603 13.9447 36.9937 13.5469C36.5697 13.0868 36.0176 12.7826 35.5784 12.5408L35.5769 12.5399C35.5364 12.5176 35.4968 12.4958 35.4585 12.4745L21.399 4.66368L21.2859 4.60051C20.8711 4.36816 20.3493 4.0759 19.7655 3.95583ZM18.4464 7.98535C18.7343 7.8254 18.8813 7.74458 18.9909 7.6917L19 7.68735L19.0091 7.6917C19.1187 7.74458 19.2657 7.8254 19.5536 7.98535L32.1871 15.004L18.9999 22.3301L5.81285 15.004L18.4464 7.98535ZM3.80056 18.2329L17.1 25.6215L17.1001 40.274L4.38691 33.2111C4.08301 33.0423 3.92785 32.9552 3.81899 32.8858L3.8098 32.8799L3.80911 32.869C3.80135 32.7402 3.80056 32.5623 3.80056 32.2146V18.2329Z" fill="#101828"/>
<path d="M55.2908 30.853H61.3388V34.417H50.6738V15.463H55.2908V30.853Z" fill="#101828"/>
<path d="M65.593 17.785C64.783 17.785 64.117 17.551 63.595 17.083C63.091 16.597 62.839 16.003 62.839 15.301C62.839 14.581 63.091 13.987 63.595 13.519C64.117 13.033 64.783 12.79 65.593 12.79C66.385 12.79 67.033 13.033 67.537 13.519C68.059 13.987 68.32 14.581 68.32 15.301C68.32 16.003 68.059 16.597 67.537 17.083C67.033 17.551 66.385 17.785 65.593 17.785ZM67.888 19.351V34.417H63.271V19.351H67.888Z" fill="#101828"/>
<path d="M76.6879 19.135C77.7499 19.135 78.6769 19.351 79.4689 19.783C80.2789 20.215 80.8999 20.782 81.3319 21.484V19.351H85.9489V34.39C85.9489 35.776 85.6699 37.027 85.1119 38.143C84.5719 39.277 83.7349 40.177 82.6009 40.843C81.4849 41.509 80.0899 41.842 78.4159 41.842C76.1839 41.842 74.3749 41.311 72.9889 40.249C71.6029 39.205 70.8109 37.783 70.6129 35.983H75.1759C75.3199 36.559 75.6619 37.009 76.2019 37.333C76.7419 37.675 77.4079 37.846 78.1999 37.846C79.1539 37.846 79.9099 37.567 80.4679 37.009C81.0439 36.469 81.3319 35.596 81.3319 34.39V32.257C80.8819 32.959 80.2609 33.535 79.4689 33.985C78.6769 34.417 77.7499 34.633 76.6879 34.633C75.4459 34.633 74.3209 34.318 73.3129 33.688C72.3049 33.04 71.5039 32.131 70.9099 30.961C70.3339 29.773 70.0459 28.405 70.0459 26.857C70.0459 25.309 70.3339 23.95 70.9099 22.78C71.5039 21.61 72.3049 20.71 73.3129 20.08C74.3209 19.45 75.4459 19.135 76.6879 19.135ZM81.3319 26.884C81.3319 25.732 81.0079 24.823 80.3599 24.157C79.7299 23.491 78.9559 23.158 78.0379 23.158C77.1199 23.158 76.3369 23.491 75.6889 24.157C75.0589 24.805 74.7439 25.705 74.7439 26.857C74.7439 28.009 75.0589 28.927 75.6889 29.611C76.3369 30.277 77.1199 30.61 78.0379 30.61C78.9559 30.61 79.7299 30.277 80.3599 29.611C81.0079 28.945 81.3319 28.036 81.3319 26.884Z" fill="#101828"/>
<path d="M98.2801 19.189C100.008 19.189 101.394 19.765 102.438 20.917C103.482 22.051 104.004 23.617 104.004 25.615V34.417H99.4141V26.236C99.4141 25.228 99.1531 24.445 98.6311 23.887C98.1091 23.329 97.4071 23.05 96.5251 23.05C95.6431 23.05 94.9411 23.329 94.4191 23.887C93.8971 24.445 93.6361 25.228 93.6361 26.236V34.417H89.0191V14.437H93.6361V21.376C94.1041 20.71 94.7431 20.179 95.5531 19.783C96.3631 19.387 97.2721 19.189 98.2801 19.189Z" fill="#101828"/>
<path d="M115.339 30.502V34.417H112.99C111.316 34.417 110.011 34.012 109.075 33.202C108.139 32.374 107.671 31.033 107.671 29.179V23.185H105.835V19.351H107.671V15.679H112.288V19.351H115.312V23.185H112.288V29.233C112.288 29.683 112.396 30.007 112.612 30.205C112.828 30.403 113.188 30.502 113.692 30.502H115.339Z" fill="#101828"/>
<path d="M122.258 21.484C122.69 20.782 123.311 20.215 124.121 19.783C124.931 19.351 125.858 19.135 126.902 19.135C128.144 19.135 129.269 19.45 130.277 20.08C131.285 20.71 132.077 21.61 132.653 22.78C133.247 23.95 133.544 25.309 133.544 26.857C133.544 28.405 133.247 29.773 132.653 30.961C132.077 32.131 131.285 33.04 130.277 33.688C129.269 34.318 128.144 34.633 126.902 34.633C125.84 34.633 124.913 34.426 124.121 34.012C123.329 33.58 122.708 33.013 122.258 32.311V34.417H117.641V14.437H122.258V21.484ZM128.846 26.857C128.846 25.705 128.522 24.805 127.874 24.157C127.244 23.491 126.461 23.158 125.525 23.158C124.607 23.158 123.824 23.491 123.176 24.157C122.546 24.823 122.231 25.732 122.231 26.884C122.231 28.036 122.546 28.945 123.176 29.611C123.824 30.277 124.607 30.61 125.525 30.61C126.443 30.61 127.226 30.277 127.874 29.611C128.522 28.927 128.846 28.009 128.846 26.857Z" fill="#101828"/>
<path d="M142.554 34.633C141.078 34.633 139.746 34.318 138.558 33.688C137.388 33.058 136.461 32.158 135.777 30.988C135.111 29.818 134.778 28.45 134.778 26.884C134.778 25.336 135.12 23.977 135.804 22.807C136.488 21.619 137.424 20.71 138.612 20.08C139.8 19.45 141.132 19.135 142.608 19.135C144.084 19.135 145.416 19.45 146.604 20.08C147.792 20.71 148.728 21.619 149.412 22.807C150.096 23.977 150.438 25.336 150.438 26.884C150.438 28.432 150.087 29.8 149.385 30.988C148.701 32.158 147.756 33.058 146.55 33.688C145.362 34.318 144.03 34.633 142.554 34.633ZM142.554 30.637C143.436 30.637 144.183 30.313 144.795 29.665C145.425 29.017 145.74 28.09 145.74 26.884C145.74 25.678 145.434 24.751 144.822 24.103C144.228 23.455 143.49 23.131 142.608 23.131C141.708 23.131 140.961 23.455 140.367 24.103C139.773 24.733 139.476 25.66 139.476 26.884C139.476 28.09 139.764 29.017 140.34 29.665C140.934 30.313 141.672 30.637 142.554 30.637Z" fill="#101828"/>
<path d="M161.528 34.417L158.639 30.232L156.209 34.417H151.214L156.182 26.722L151.079 19.351H156.263L159.152 23.509L161.582 19.351H166.577L161.528 26.938L166.712 34.417H161.528Z" fill="#101828"/>
</svg>
