<svg width="175" height="49" viewBox="0 0 175 49" fill="none" xmlns="http://www.w3.org/2000/svg">
<path d="M14.778 19.9575C20.5389 17.2023 25.0474 12.5268 27.6357 6.68238C25.9658 4.92906 23.7951 3.67669 21.4573 2.92527L20.2049 2.50781C20.1214 2.6748 20.0379 2.92528 20.0379 3.09226C18.0342 8.76968 13.9431 13.3617 8.43264 15.9499C4.59203 17.7868 1.75332 21.1264 0.417457 25.134L0 26.3864C0.166983 26.4699 0.417461 26.5533 0.584444 26.5533C2.17078 27.1378 3.75712 27.8892 5.25996 28.8076C7.34725 25.0505 10.6869 21.8778 14.778 19.9575Z" fill="#087443"/>
<path d="M38.991 20.2915C35.9018 24.967 31.6437 28.7241 26.3838 31.2289C22.1257 33.2327 18.8695 36.9898 17.3667 41.4984L16.9492 42.9177C18.5356 44.337 20.4559 45.4224 22.5431 46.0904L23.7955 46.5078C23.879 46.3409 23.9625 46.0904 23.9625 45.9234C25.9663 40.246 30.0574 35.6539 35.5678 33.0657C39.4084 31.2289 42.3306 27.8892 43.583 23.8817L44.0004 22.6293C42.2471 22.1283 40.5773 21.2934 38.991 20.2915Z" fill="#16B364"/>
<path d="M13.6091 38.5761C15.6964 33.5666 19.537 29.4755 24.463 27.1378C28.9715 24.967 32.7287 21.6274 35.3169 17.5363C33.3966 15.6995 31.8102 13.6122 30.6414 11.1074C27.5522 16.7848 22.7097 21.3769 16.7818 24.2156C13.3586 25.8019 10.6034 28.5572 8.93359 31.8968C10.7704 33.6501 12.2733 35.8209 13.4421 38.2421C13.4421 38.2421 13.5256 38.4091 13.6091 38.5761Z" fill="#099250"/>
<path d="M53.9502 34.5079H68.0202V30.6079H58.4802V13.5079H53.9502V34.5079Z" fill="#101828"/>
<path d="M82.72 19.3879H78.52V27.6679C78.52 29.5879 77.23 31.0279 75.4 31.0279C73.69 31.0279 72.49 29.7079 72.49 27.8779V19.3879H68.32V28.8079C68.32 32.2579 70.54 34.7479 73.93 34.7479C76 34.7479 77.68 33.8479 78.52 32.4079V34.5079H82.72V19.3879Z" fill="#101828"/>
<path d="M84.2802 34.5079H88.4802V25.9279C88.4802 23.9779 89.5902 22.6879 91.3302 22.6879C92.9502 22.6879 93.9702 23.9779 93.9702 25.9279V34.5079H98.1702V25.9279C98.1702 23.9779 99.2802 22.6879 101.02 22.6879C102.64 22.6879 103.69 23.9779 103.69 25.9279V34.5079H107.86V24.6079C107.86 21.5779 105.73 19.1479 102.43 19.1479C100 19.1479 98.1102 20.4379 97.3902 21.9079C96.6702 20.1079 95.1402 19.1479 92.7702 19.1479C90.7302 19.1479 89.2902 20.1379 88.4802 21.5179V19.3879H84.2802V34.5079Z" fill="#101828"/>
<path d="M109.291 12.8179V17.2279H113.731V12.8179H109.291ZM109.411 34.5079H113.611V19.3879H109.411V34.5079Z" fill="#101828"/>
<path d="M115.177 34.5079H119.377V26.2279C119.377 24.2779 120.667 22.8679 122.497 22.8679C124.237 22.8679 125.407 24.1879 125.407 26.0179V34.5079H129.607V25.0879C129.607 21.6079 127.387 19.1479 123.967 19.1479C121.897 19.1479 120.217 20.0179 119.377 21.4879V19.3879H115.177V34.5079Z" fill="#101828"/>
<path d="M138.367 34.7479C143.017 34.7479 146.347 31.4479 146.347 26.9479C146.347 22.4479 143.017 19.1479 138.367 19.1479C133.717 19.1479 130.387 22.4479 130.387 26.9479C130.387 31.4479 133.717 34.7479 138.367 34.7479ZM138.367 31.1479C136.117 31.1479 134.587 29.4379 134.587 26.9479C134.587 24.4279 136.117 22.7179 138.367 22.7179C140.617 22.7179 142.147 24.4279 142.147 26.9479C142.147 29.4379 140.617 31.1479 138.367 31.1479Z" fill="#101828"/>
<path d="M161.558 19.3879H157.358V27.6679C157.358 29.5879 156.068 31.0279 154.238 31.0279C152.528 31.0279 151.328 29.7079 151.328 27.8779V19.3879H147.158V28.8079C147.158 32.2579 149.378 34.7479 152.768 34.7479C154.838 34.7479 156.518 33.8479 157.358 32.4079V34.5079H161.558V19.3879Z" fill="#101828"/>
<path d="M168.638 34.7479C172.178 34.7479 174.518 32.8579 174.518 29.9779C174.518 23.1379 166.238 26.6479 166.238 23.5579C166.238 22.5979 167.048 22.0879 168.218 22.0879C169.358 22.0879 170.528 22.7779 170.708 24.0679H174.338C174.188 21.0979 171.728 19.1479 168.098 19.1479C165.008 19.1479 162.698 21.0379 162.698 23.7079C162.698 30.0679 170.828 27.0379 170.828 30.1279C170.828 30.9679 169.928 31.5979 168.638 31.5979C167.078 31.5979 166.028 30.7579 165.878 29.4079H162.278C162.428 32.6779 164.948 34.7479 168.638 34.7479Z" fill="#101828"/>
</svg>
