<svg width="39" height="40" viewBox="0 0 39 40" fill="none" xmlns="http://www.w3.org/2000/svg">
<path d="M19.3643 0.84375C8.77393 0.84375 0.144043 9.47364 0.144043 20.064C0.144043 30.6544 8.77393 39.2842 19.3643 39.2842C29.9546 39.2842 38.5845 30.6544 38.5845 20.064C38.5845 9.47364 29.9546 0.84375 19.3643 0.84375ZM24.7267 21.0827L17.942 27.8674C17.6537 28.1557 17.2885 28.2903 16.9233 28.2903C16.5581 28.2903 16.1929 28.1557 15.9046 27.8674C15.3473 27.31 15.3473 26.3875 15.9046 25.8301L21.6707 20.064L15.9046 14.2979C15.3473 13.7405 15.3473 12.818 15.9046 12.2606C16.462 11.7032 17.3846 11.7032 17.942 12.2606L24.7267 19.0453C25.3033 19.6027 25.3033 20.5253 24.7267 21.0827Z" fill="#5A5A5A"/>
</svg>
