<svg width="40" height="40" viewBox="0 0 40 40" fill="none" xmlns="http://www.w3.org/2000/svg">
<path d="M20.0645 0.84375C9.47413 0.84375 0.844238 9.47364 0.844238 20.064C0.844238 30.6544 9.47413 39.2842 20.0645 39.2842C30.6548 39.2842 39.2847 30.6544 39.2847 20.064C39.2847 9.47364 30.6548 0.84375 20.0645 0.84375ZM23.5049 25.8301C24.0623 26.3875 24.0623 27.31 23.5049 27.8674C23.2166 28.1557 22.8514 28.2903 22.4862 28.2903C22.121 28.2903 21.7559 28.1557 21.4676 27.8674L14.6828 21.0827C14.1254 20.5253 14.1254 19.6027 14.6828 19.0453L21.4676 12.2606C22.0249 11.7032 22.9475 11.7032 23.5049 12.2606C24.0623 12.818 24.0623 13.7405 23.5049 14.2979L17.7388 20.064L23.5049 25.8301Z" fill="#5A5A5A"/>
</svg>
