<svg width="166" height="49" viewBox="0 0 166 49" fill="none" xmlns="http://www.w3.org/2000/svg">
<circle cx="22" cy="24.7578" r="20.5" stroke="#6927DA" stroke-width="3"/>
<path d="M30.131 32.8897C25.9917 37.0291 21.3021 39.7314 17.1258 40.8053C12.9117 41.8889 9.51504 41.2651 7.50363 39.2537C5.49222 37.2423 4.86844 33.8457 5.95206 29.6316C7.02598 25.4552 9.7282 20.7657 13.8676 16.6263C18.007 12.4869 22.6965 9.78468 26.8729 8.71075C31.087 7.62713 34.4836 8.25092 36.495 10.2623C38.5064 12.2737 39.1302 15.6704 38.0466 19.8845C36.9727 24.0608 34.2704 28.7503 30.131 32.8897Z" stroke="#6927DA" stroke-width="3"/>
<path d="M30.1324 16.6263C34.2718 20.7657 36.974 25.4552 38.0479 29.6316C39.1316 33.8457 38.5078 37.2423 36.4964 39.2537C34.485 41.2651 31.0883 41.8889 26.8743 40.8053C22.6979 39.7313 18.0084 37.0291 13.869 32.8897C9.72957 28.7503 7.02735 24.0608 5.95343 19.8844C4.86981 15.6704 5.49359 12.2737 7.505 10.2623C9.51641 8.25091 12.913 7.62712 17.1271 8.71074C21.3035 9.78467 25.993 12.4869 30.1324 16.6263Z" stroke="#6927DA" stroke-width="3"/>
<path d="M62.8507 34.7479C67.5607 34.7479 70.7407 32.2879 70.7407 28.3579C70.7407 20.0479 59.7007 23.5879 59.7007 19.2079C59.7007 17.9779 60.8107 17.1379 62.5807 17.1379C64.5907 17.1379 65.8507 18.2179 66.0007 19.8679H70.2907C70.1707 15.8779 67.1107 13.2679 62.5807 13.2679C58.3207 13.2679 55.3207 15.7279 55.3207 19.2079C55.3207 27.4579 66.2107 24.3079 66.2107 28.4179C66.2107 30.0079 64.8607 30.8479 62.8507 30.8479C60.6307 30.8479 59.2207 29.4979 59.0407 27.3679H54.7207C54.9007 31.8379 58.0807 34.7479 62.8507 34.7479Z" fill="#101828"/>
<path d="M71.7609 40.6279H75.9309V33.1579C76.7409 34.1779 78.2109 34.7479 79.9209 34.7479C84.2709 34.7479 87.2109 31.6579 87.2109 26.9479C87.2109 22.2379 84.5109 19.1479 80.2809 19.1479C78.3309 19.1479 76.8309 19.8679 75.9309 21.0379V19.3879H71.7609V40.6279ZM79.4109 31.1479C77.1609 31.1479 75.6909 29.4679 75.6909 26.9479C75.6909 24.3979 77.1609 22.7179 79.4109 22.7179C81.6009 22.7179 83.1009 24.3979 83.1009 26.9479C83.1009 29.4679 81.6009 31.1479 79.4109 31.1479Z" fill="#101828"/>
<path d="M88.2199 34.5079H92.3899V26.2279C92.3899 24.2779 93.6799 22.8679 95.5099 22.8679C97.2499 22.8679 98.4499 24.1879 98.4499 26.0179V34.5079H102.62V25.0879C102.62 21.6079 100.4 19.1479 97.0099 19.1479C94.9099 19.1479 93.2599 20.0179 92.3899 21.4879V12.8179H88.2199V34.5079Z" fill="#101828"/>
<path d="M114.285 29.3779C113.955 30.6679 112.845 31.3279 111.165 31.3279C109.065 31.3279 107.715 30.0079 107.415 27.8779H118.275C118.305 27.5479 118.335 27.0979 118.335 26.5279C118.335 23.0779 116.205 19.1479 110.865 19.1479C105.735 19.1479 103.395 23.0779 103.395 26.9179C103.395 30.7279 106.035 34.7479 111.165 34.7479C114.885 34.7479 117.765 32.6479 118.365 29.3779H114.285ZM110.865 22.2079C112.875 22.2079 114.045 23.5579 114.165 25.2379H107.475C107.835 23.1379 108.975 22.2079 110.865 22.2079Z" fill="#101828"/>
<path d="M129.272 22.8679V19.3879H127.12C125.29 19.3879 124.15 20.0179 123.34 21.9079V19.3879H119.14V34.5079H123.34V27.1579C123.34 24.5779 124.27 22.8679 126.34 22.8679H129.272Z" fill="#101828"/>
<path d="M143.672 19.3879H139.472V27.6679C139.472 29.5879 138.182 31.0279 136.352 31.0279C134.642 31.0279 133.442 29.7079 133.442 27.8779V19.3879H129.272V28.8079C129.272 32.2579 131.492 34.7479 134.882 34.7479C136.952 34.7479 138.632 33.8479 139.472 32.4079V34.5079H143.672V19.3879Z" fill="#101828"/>
<path d="M145.472 34.5079H149.642V12.8179H145.472V34.5079Z" fill="#101828"/>
<path d="M161.547 29.3779C161.217 30.6679 160.107 31.3279 158.427 31.3279C156.327 31.3279 154.977 30.0079 154.677 27.8779H165.537C165.567 27.5479 165.597 27.0979 165.597 26.5279C165.597 23.0779 163.467 19.1479 158.127 19.1479C152.997 19.1479 150.657 23.0779 150.657 26.9179C150.657 30.7279 153.297 34.7479 158.427 34.7479C162.147 34.7479 165.027 32.6479 165.627 29.3779H161.547ZM158.127 22.2079C160.137 22.2079 161.307 23.5579 161.427 25.2379H154.737C155.097 23.1379 156.237 22.2079 158.127 22.2079Z" fill="#101828"/>
</svg>
