<svg width="185" height="20" viewBox="0 0 185 20" fill="none" xmlns="http://www.w3.org/2000/svg">
<path d="M19 7.48849C19 7.13591 19.2858 6.8501 19.6384 6.8501C19.991 6.8501 20.2768 7.13591 20.2768 7.48849V11.0473C20.2768 11.3998 19.991 11.6857 19.6384 11.6857C19.2858 11.6857 19 11.3998 19 11.0473V7.48849Z" fill="#393939"/>
<path d="M19 7.48849C19 7.13591 19.2858 6.8501 19.6384 6.8501C19.991 6.8501 20.2768 7.13591 20.2768 7.48849V11.0473C20.2768 11.3998 19.991 11.6857 19.6384 11.6857C19.2858 11.6857 19 11.3998 19 11.0473V7.48849Z" stroke="white"/>
<path d="M22.1133 6.27999C22.1133 5.92742 22.3991 5.6416 22.7517 5.6416C23.1042 5.6416 23.3901 5.92742 23.3901 6.27999V12.2565C23.3901 12.6091 23.1042 12.8949 22.7517 12.8949C22.3991 12.8949 22.1133 12.6091 22.1133 12.2565V6.27999Z" fill="#393939"/>
<path d="M22.1133 6.27999C22.1133 5.92742 22.3991 5.6416 22.7517 5.6416C23.1042 5.6416 23.3901 5.92742 23.3901 6.27999V12.2565C23.3901 12.6091 23.1042 12.8949 22.7517 12.8949C22.3991 12.8949 22.1133 12.6091 22.1133 12.2565V6.27999Z" stroke="white"/>
<path d="M25.2266 5.47384C25.2266 5.12127 25.5124 4.83545 25.865 4.83545C26.2175 4.83545 26.5033 5.12127 26.5033 5.47384V13.0622C26.5033 13.4148 26.2175 13.7006 25.865 13.7006C25.5124 13.7006 25.2266 13.4148 25.2266 13.0622V5.47384Z" fill="#393939"/>
<path d="M25.2266 5.47384C25.2266 5.12127 25.5124 4.83545 25.865 4.83545C26.2175 4.83545 26.5033 5.12127 26.5033 5.47384V13.0622C26.5033 13.4148 26.2175 13.7006 25.865 13.7006C25.5124 13.7006 25.2266 13.4148 25.2266 13.0622V5.47384Z" stroke="white"/>
<path d="M28.3398 1.84737C28.3398 1.4948 28.6257 1.20898 28.9782 1.20898C29.3308 1.20898 29.6166 1.4948 29.6166 1.84737V16.6891C29.6166 17.0417 29.3308 17.3275 28.9782 17.3275C28.6257 17.3275 28.3398 17.0417 28.3398 16.6891V1.84737Z" fill="#393939"/>
<path d="M28.3398 1.84737C28.3398 1.4948 28.6257 1.20898 28.9782 1.20898C29.3308 1.20898 29.6166 1.4948 29.6166 1.84737V16.6891C29.6166 17.0417 29.3308 17.3275 28.9782 17.3275C28.6257 17.3275 28.3398 17.0417 28.3398 16.6891V1.84737Z" stroke="white"/>
<path d="M31.4531 6.68282C31.4531 6.33025 31.7389 6.04443 32.0915 6.04443C32.4441 6.04443 32.7299 6.33025 32.7299 6.68282V11.4505C32.7299 11.8031 32.4441 12.0889 32.0915 12.0889C31.7389 12.0889 31.4531 11.8031 31.4531 11.4505V6.68282Z" fill="#393939"/>
<path d="M31.4531 6.68282C31.4531 6.33025 31.7389 6.04443 32.0915 6.04443C32.4441 6.04443 32.7299 6.33025 32.7299 6.68282V11.4505C32.7299 11.8031 32.4441 12.0889 32.0915 12.0889C31.7389 12.0889 31.4531 11.8031 31.4531 11.4505V6.68282Z" stroke="white"/>
<path d="M34.5664 5.87716C34.5664 5.52459 34.8522 5.23877 35.2048 5.23877C35.5574 5.23877 35.8432 5.52459 35.8432 5.87716V13.0626C35.8432 13.4152 35.5574 13.701 35.2048 13.701C34.8522 13.701 34.5664 13.4152 34.5664 13.0626V5.87716Z" fill="#393939"/>
<path d="M34.5664 5.87716C34.5664 5.52459 34.8522 5.23877 35.2048 5.23877C35.5574 5.23877 35.8432 5.52459 35.8432 5.87716V13.0626C35.8432 13.4152 35.5574 13.701 35.2048 13.701C34.8522 13.701 34.5664 13.4152 34.5664 13.0626V5.87716Z" stroke="white"/>
<path d="M37.6777 3.86202C37.6777 3.50945 37.9636 3.22363 38.3161 3.22363C38.6687 3.22363 38.9545 3.50945 38.9545 3.86202V14.6741C38.9545 15.0267 38.6687 15.3125 38.3161 15.3125C37.9636 15.3125 37.6777 15.0267 37.6777 14.6741V3.86202Z" fill="#393939"/>
<path d="M37.6777 3.86202C37.6777 3.50945 37.9636 3.22363 38.3161 3.22363C38.6687 3.22363 38.9545 3.50945 38.9545 3.86202V14.6741C38.9545 15.0267 38.6687 15.3125 38.3161 15.3125C37.9636 15.3125 37.6777 15.0267 37.6777 14.6741V3.86202Z" stroke="white"/>
<path d="M40.793 1.84737C40.793 1.4948 41.0788 1.20898 41.4314 1.20898C41.7839 1.20898 42.0697 1.4948 42.0697 1.84737V16.6891C42.0697 17.0417 41.7839 17.3275 41.4314 17.3275C41.0788 17.3275 40.793 17.0417 40.793 16.6891V1.84737Z" fill="#393939"/>
<path d="M40.793 1.84737C40.793 1.4948 41.0788 1.20898 41.4314 1.20898C41.7839 1.20898 42.0697 1.4948 42.0697 1.84737V16.6891C42.0697 17.0417 41.7839 17.3275 41.4314 17.3275C41.0788 17.3275 40.793 17.0417 40.793 16.6891V1.84737Z" stroke="white"/>
<path d="M43.9043 5.47384C43.9043 5.12127 44.1901 4.83545 44.5427 4.83545C44.8953 4.83545 45.1811 5.12127 45.1811 5.47384V13.0622C45.1811 13.4148 44.8953 13.7006 44.5427 13.7006C44.1901 13.7006 43.9043 13.4148 43.9043 13.0622V5.47384Z" fill="#393939"/>
<path d="M43.9043 5.47384C43.9043 5.12127 44.1901 4.83545 44.5427 4.83545C44.8953 4.83545 45.1811 5.12127 45.1811 5.47384V13.0622C45.1811 13.4148 44.8953 13.7006 44.5427 13.7006C44.1901 13.7006 43.9043 13.4148 43.9043 13.0622V5.47384Z" stroke="white"/>
<path d="M47.0176 2.65304C47.0176 2.30046 47.3034 2.01465 47.656 2.01465C48.0085 2.01465 48.2944 2.30046 48.2944 2.65304V15.8829C48.2944 16.2355 48.0085 16.5213 47.656 16.5213C47.3034 16.5213 47.0176 16.2355 47.0176 15.8829V2.65304Z" fill="#393939"/>
<path d="M47.0176 2.65304C47.0176 2.30046 47.3034 2.01465 47.656 2.01465C48.0085 2.01465 48.2944 2.30046 48.2944 2.65304V15.8829C48.2944 16.2355 48.0085 16.5213 47.656 16.5213C47.3034 16.5213 47.0176 16.2355 47.0176 15.8829V2.65304Z" stroke="white"/>
<path d="M50.1328 5.87716C50.1328 5.52459 50.4186 5.23877 50.7712 5.23877C51.1238 5.23877 51.4096 5.52459 51.4096 5.87716V13.0626C51.4096 13.4152 51.1238 13.701 50.7712 13.701C50.4186 13.701 50.1328 13.4152 50.1328 13.0626V5.87716Z" fill="#393939"/>
<path d="M50.1328 5.87716C50.1328 5.52459 50.4186 5.23877 50.7712 5.23877C51.1238 5.23877 51.4096 5.52459 51.4096 5.87716V13.0626C51.4096 13.4152 51.1238 13.701 50.7712 13.701C50.4186 13.701 50.1328 13.4152 50.1328 13.0626V5.87716Z" stroke="white"/>
<path d="M53.2441 1.84737C53.2441 1.4948 53.53 1.20898 53.8825 1.20898C54.2351 1.20898 54.5209 1.4948 54.5209 1.84737V16.6891C54.5209 17.0417 54.2351 17.3275 53.8825 17.3275C53.53 17.3275 53.2441 17.0417 53.2441 16.6891V1.84737Z" fill="#393939"/>
<path d="M53.2441 1.84737C53.2441 1.4948 53.53 1.20898 53.8825 1.20898C54.2351 1.20898 54.5209 1.4948 54.5209 1.84737V16.6891C54.5209 17.0417 54.2351 17.3275 53.8825 17.3275C53.53 17.3275 53.2441 17.0417 53.2441 16.6891V1.84737Z" stroke="white"/>
<path d="M56.3594 5.47384C56.3594 5.12127 56.6452 4.83545 56.9978 4.83545C57.3503 4.83545 57.6362 5.12127 57.6362 5.47384V13.0622C57.6362 13.4148 57.3503 13.7006 56.9978 13.7006C56.6452 13.7006 56.3594 13.4148 56.3594 13.0622V5.47384Z" fill="#393939"/>
<path d="M56.3594 5.47384C56.3594 5.12127 56.6452 4.83545 56.9978 4.83545C57.3503 4.83545 57.6362 5.12127 57.6362 5.47384V13.0622C57.6362 13.4148 57.3503 13.7006 56.9978 13.7006C56.6452 13.7006 56.3594 13.4148 56.3594 13.0622V5.47384Z" stroke="white"/>
<path d="M59.4707 3.86202C59.4707 3.50945 59.7565 3.22363 60.1091 3.22363C60.4617 3.22363 60.7475 3.50945 60.7475 3.86202V15.0771C60.7475 15.4297 60.4617 15.7155 60.1091 15.7155C59.7565 15.7155 59.4707 15.4297 59.4707 15.0771V3.86202Z" fill="#393939"/>
<path d="M59.4707 3.86202C59.4707 3.50945 59.7565 3.22363 60.1091 3.22363C60.4617 3.22363 60.7475 3.50945 60.7475 3.86202V15.0771C60.7475 15.4297 60.4617 15.7155 60.1091 15.7155C59.7565 15.7155 59.4707 15.4297 59.4707 15.0771V3.86202Z" stroke="white"/>
<path d="M62.584 3.86202C62.584 3.50945 62.8698 3.22363 63.2224 3.22363C63.5749 3.22363 63.8608 3.50945 63.8608 3.86202V14.6741C63.8608 15.0267 63.5749 15.3125 63.2224 15.3125C62.8698 15.3125 62.584 15.0267 62.584 14.6741V3.86202Z" fill="#393939"/>
<path d="M62.584 3.86202C62.584 3.50945 62.8698 3.22363 63.2224 3.22363C63.5749 3.22363 63.8608 3.50945 63.8608 3.86202V14.6741C63.8608 15.0267 63.5749 15.3125 63.2224 15.3125C62.8698 15.3125 62.584 15.0267 62.584 14.6741V3.86202Z" stroke="white"/>
<path d="M65.6973 5.47384C65.6973 5.12127 65.9831 4.83545 66.3357 4.83545C66.6882 4.83545 66.974 5.12127 66.974 5.47384V13.0622C66.974 13.4148 66.6882 13.7006 66.3357 13.7006C65.9831 13.7006 65.6973 13.4148 65.6973 13.0622V5.47384Z" fill="#393939"/>
<path d="M65.6973 5.47384C65.6973 5.12127 65.9831 4.83545 66.3357 4.83545C66.6882 4.83545 66.974 5.12127 66.974 5.47384V13.0622C66.974 13.4148 66.6882 13.7006 66.3357 13.7006C65.9831 13.7006 65.6973 13.4148 65.6973 13.0622V5.47384Z" stroke="white"/>
<path d="M68.8105 0.638386C68.8105 0.285815 69.0964 0 69.4489 0C69.8015 0 70.0873 0.285816 70.0873 0.638388V17.4949C70.0873 17.8475 69.8015 18.1333 69.4489 18.1333C69.0964 18.1333 68.8105 17.8475 68.8105 17.4949V0.638386Z" fill="#393939"/>
<path d="M68.8105 0.638386C68.8105 0.285815 69.0964 0 69.4489 0C69.8015 0 70.0873 0.285816 70.0873 0.638388V17.4949C70.0873 17.8475 69.8015 18.1333 69.4489 18.1333C69.0964 18.1333 68.8105 17.8475 68.8105 17.4949V0.638386Z" stroke="white"/>
<path d="M71.9219 6.27999C71.9219 5.92742 72.2077 5.6416 72.5603 5.6416C72.9128 5.6416 73.1987 5.92742 73.1987 6.27999V12.2565C73.1987 12.6091 72.9128 12.8949 72.5603 12.8949C72.2077 12.8949 71.9219 12.6091 71.9219 12.2565V6.27999Z" fill="#393939"/>
<path d="M71.9219 6.27999C71.9219 5.92742 72.2077 5.6416 72.5603 5.6416C72.9128 5.6416 73.1987 5.92742 73.1987 6.27999V12.2565C73.1987 12.6091 72.9128 12.8949 72.5603 12.8949C72.2077 12.8949 71.9219 12.6091 71.9219 12.2565V6.27999Z" stroke="white"/>
<path d="M75.0371 2.65304C75.0371 2.30046 75.3229 2.01465 75.6755 2.01465C76.0281 2.01465 76.3139 2.30046 76.3139 2.65304V15.8829C76.3139 16.2355 76.0281 16.5213 75.6755 16.5213C75.3229 16.5213 75.0371 16.2355 75.0371 15.8829V2.65304Z" fill="#393939"/>
<path d="M75.0371 2.65304C75.0371 2.30046 75.3229 2.01465 75.6755 2.01465C76.0281 2.01465 76.3139 2.30046 76.3139 2.65304V15.8829C76.3139 16.2355 76.0281 16.5213 75.6755 16.5213C75.3229 16.5213 75.0371 16.2355 75.0371 15.8829V2.65304Z" stroke="white"/>
<path d="M78.1504 3.05636C78.1504 2.70379 78.4362 2.41797 78.7888 2.41797C79.1413 2.41797 79.4272 2.70378 79.4272 3.05636V14.6744C79.4272 15.027 79.1413 15.3128 78.7888 15.3128C78.4362 15.3128 78.1504 15.027 78.1504 14.6744V3.05636Z" fill="#393939"/>
<path d="M78.1504 3.05636C78.1504 2.70379 78.4362 2.41797 78.7888 2.41797C79.1413 2.41797 79.4272 2.70378 79.4272 3.05636V14.6744C79.4272 15.027 79.1413 15.3128 78.7888 15.3128C78.4362 15.3128 78.1504 15.027 78.1504 14.6744V3.05636Z" stroke="white"/>
<path d="M0.228516 4.05636C0.228516 3.70379 0.514331 3.41797 0.866903 3.41797C1.21947 3.41797 1.50529 3.70378 1.50529 4.05636V15.6744C1.50529 16.027 1.21947 16.3128 0.866903 16.3128C0.514331 16.3128 0.228516 16.027 0.228516 15.6744V4.05636Z" fill="#393939"/>
<path d="M0.228516 4.05636C0.228516 3.70379 0.514331 3.41797 0.866903 3.41797C1.21947 3.41797 1.50529 3.70378 1.50529 4.05636V15.6744C1.50529 16.027 1.21947 16.3128 0.866903 16.3128C0.514331 16.3128 0.228516 16.027 0.228516 15.6744V4.05636Z" stroke="white"/>
<path d="M81.2637 5.87716C81.2637 5.52459 81.5495 5.23877 81.9021 5.23877C82.2546 5.23877 82.5404 5.52459 82.5404 5.87716V13.0626C82.5404 13.4152 82.2546 13.701 81.9021 13.701C81.5495 13.701 81.2637 13.4152 81.2637 13.0626V5.87716Z" fill="#393939"/>
<path d="M81.2637 5.87716C81.2637 5.52459 81.5495 5.23877 81.9021 5.23877C82.2546 5.23877 82.5404 5.52459 82.5404 5.87716V13.0626C82.5404 13.4152 82.2546 13.701 81.9021 13.701C81.5495 13.701 81.2637 13.4152 81.2637 13.0626V5.87716Z" stroke="white"/>
<path d="M3.3418 6.87716C3.3418 6.52459 3.62761 6.23877 3.98018 6.23877C4.33276 6.23877 4.61857 6.52459 4.61857 6.87716V14.0626C4.61857 14.4152 4.33276 14.701 3.98018 14.701C3.62761 14.701 3.3418 14.4152 3.3418 14.0626V6.87716Z" fill="#393939"/>
<path d="M3.3418 6.87716C3.3418 6.52459 3.62761 6.23877 3.98018 6.23877C4.33276 6.23877 4.61857 6.52459 4.61857 6.87716V14.0626C4.61857 14.4152 4.33276 14.701 3.98018 14.701C3.62761 14.701 3.3418 14.4152 3.3418 14.0626V6.87716Z" stroke="white"/>
<path d="M84.377 5.87716C84.377 5.52459 84.6628 5.23877 85.0153 5.23877C85.3679 5.23877 85.6537 5.52459 85.6537 5.87716V13.0626C85.6537 13.4152 85.3679 13.701 85.0153 13.701C84.6628 13.701 84.377 13.4152 84.377 13.0626V5.87716Z" fill="#393939"/>
<path d="M84.377 5.87716C84.377 5.52459 84.6628 5.23877 85.0153 5.23877C85.3679 5.23877 85.6537 5.52459 85.6537 5.87716V13.0626C85.6537 13.4152 85.3679 13.701 85.0153 13.701C84.6628 13.701 84.377 13.4152 84.377 13.0626V5.87716Z" stroke="white"/>
<path d="M6.45508 6.87716C6.45508 6.52459 6.74089 6.23877 7.09347 6.23877C7.44604 6.23877 7.73185 6.52459 7.73185 6.87716V14.0626C7.73185 14.4152 7.44604 14.701 7.09347 14.701C6.74089 14.701 6.45508 14.4152 6.45508 14.0626V6.87716Z" fill="#393939"/>
<path d="M6.45508 6.87716C6.45508 6.52459 6.74089 6.23877 7.09347 6.23877C7.44604 6.23877 7.73185 6.52459 7.73185 6.87716V14.0626C7.73185 14.4152 7.44604 14.701 7.09347 14.701C6.74089 14.701 6.45508 14.4152 6.45508 14.0626V6.87716Z" stroke="white"/>
<path d="M87.4883 2.65304C87.4883 2.30046 87.7741 2.01465 88.1267 2.01465C88.4792 2.01465 88.7651 2.30046 88.7651 2.65304V15.48C88.7651 15.8325 88.4792 16.1184 88.1267 16.1184C87.7741 16.1184 87.4883 15.8325 87.4883 15.48V2.65304Z" fill="#393939"/>
<path d="M87.4883 2.65304C87.4883 2.30046 87.7741 2.01465 88.1267 2.01465C88.4792 2.01465 88.7651 2.30046 88.7651 2.65304V15.48C88.7651 15.8325 88.4792 16.1184 88.1267 16.1184C87.7741 16.1184 87.4883 15.8325 87.4883 15.48V2.65304Z" stroke="white"/>
<path d="M9.56641 3.65304C9.56641 3.30046 9.85222 3.01465 10.2048 3.01465C10.5574 3.01465 10.8432 3.30046 10.8432 3.65304V16.48C10.8432 16.8325 10.5574 17.1184 10.2048 17.1184C9.85222 17.1184 9.56641 16.8325 9.56641 16.48V3.65304Z" fill="#393939"/>
<path d="M9.56641 3.65304C9.56641 3.30046 9.85222 3.01465 10.2048 3.01465C10.5574 3.01465 10.8432 3.30046 10.8432 3.65304V16.48C10.8432 16.8325 10.5574 17.1184 10.2048 17.1184C9.85222 17.1184 9.56641 16.8325 9.56641 16.48V3.65304Z" stroke="white"/>
<path d="M90.6035 6.68282C90.6035 6.33025 90.8893 6.04443 91.2419 6.04443C91.5945 6.04443 91.8803 6.33025 91.8803 6.68282V11.4505C91.8803 11.8031 91.5945 12.0889 91.2419 12.0889C90.8893 12.0889 90.6035 11.8031 90.6035 11.4505V6.68282Z" fill="#393939"/>
<path d="M90.6035 6.68282C90.6035 6.33025 90.8893 6.04443 91.2419 6.04443C91.5945 6.04443 91.8803 6.33025 91.8803 6.68282V11.4505C91.8803 11.8031 91.5945 12.0889 91.2419 12.0889C90.8893 12.0889 90.6035 11.8031 90.6035 11.4505V6.68282Z" stroke="white"/>
<path d="M12.6816 7.68282C12.6816 7.33025 12.9675 7.04443 13.32 7.04443C13.6726 7.04443 13.9584 7.33025 13.9584 7.68282V12.4505C13.9584 12.8031 13.6726 13.0889 13.32 13.0889C12.9675 13.0889 12.6816 12.8031 12.6816 12.4505V7.68282Z" fill="#393939"/>
<path d="M12.6816 7.68282C12.6816 7.33025 12.9675 7.04443 13.32 7.04443C13.6726 7.04443 13.9584 7.33025 13.9584 7.68282V12.4505C13.9584 12.8031 13.6726 13.0889 13.32 13.0889C12.9675 13.0889 12.6816 12.8031 12.6816 12.4505V7.68282Z" stroke="white"/>
<path d="M93.7148 3.05636C93.7148 2.70378 94.0007 2.41797 94.3532 2.41797C94.7058 2.41797 94.9916 2.70378 94.9916 3.05636V15.0774C94.9916 15.4299 94.7058 15.7157 94.3532 15.7157C94.0007 15.7157 93.7148 15.4299 93.7148 15.0774V3.05636Z" fill="#393939"/>
<path d="M93.7148 3.05636C93.7148 2.70378 94.0007 2.41797 94.3532 2.41797C94.7058 2.41797 94.9916 2.70378 94.9916 3.05636V15.0774C94.9916 15.4299 94.7058 15.7157 94.3532 15.7157C94.0007 15.7157 93.7148 15.4299 93.7148 15.0774V3.05636Z" stroke="white"/>
<path d="M15.793 4.05636C15.793 3.70378 16.0788 3.41797 16.4314 3.41797C16.7839 3.41797 17.0697 3.70378 17.0697 4.05636V16.0774C17.0697 16.4299 16.7839 16.7157 16.4314 16.7157C16.0788 16.7157 15.793 16.4299 15.793 16.0774V4.05636Z" fill="#393939"/>
<path d="M15.793 4.05636C15.793 3.70378 16.0788 3.41797 16.4314 3.41797C16.7839 3.41797 17.0697 3.70378 17.0697 4.05636V16.0774C17.0697 16.4299 16.7839 16.7157 16.4314 16.7157C16.0788 16.7157 15.793 16.4299 15.793 16.0774V4.05636Z" stroke="white"/>
<path d="M96.8281 5.87716C96.8281 5.52459 97.1139 5.23877 97.4665 5.23877C97.8191 5.23877 98.1049 5.52459 98.1049 5.87716V13.0626C98.1049 13.4152 97.8191 13.701 97.4665 13.701C97.1139 13.701 96.8281 13.4152 96.8281 13.0626V5.87716Z" fill="#393939"/>
<path d="M96.8281 5.87716C96.8281 5.52459 97.1139 5.23877 97.4665 5.23877C97.8191 5.23877 98.1049 5.52459 98.1049 5.87716V13.0626C98.1049 13.4152 97.8191 13.701 97.4665 13.701C97.1139 13.701 96.8281 13.4152 96.8281 13.0626V5.87716Z" stroke="white"/>
<path d="M18.9062 6.87716C18.9062 6.52459 19.1921 6.23877 19.5446 6.23877C19.8972 6.23877 20.183 6.52459 20.183 6.87716V14.0626C20.183 14.4152 19.8972 14.701 19.5446 14.701C19.1921 14.701 18.9062 14.4152 18.9062 14.0626V6.87716Z" fill="#393939"/>
<path d="M18.9062 6.87716C18.9062 6.52459 19.1921 6.23877 19.5446 6.23877C19.8972 6.23877 20.183 6.52459 20.183 6.87716V14.0626C20.183 14.4152 19.8972 14.701 19.5446 14.701C19.1921 14.701 18.9062 14.4152 18.9062 14.0626V6.87716Z" stroke="white"/>
<path d="M99.9414 0.638386C99.9414 0.285815 100.227 0 100.58 0C100.932 0 101.218 0.285816 101.218 0.638388V17.4949C101.218 17.8475 100.932 18.1333 100.58 18.1333C100.227 18.1333 99.9414 17.8475 99.9414 17.4949V0.638386Z" fill="#393939"/>
<path d="M99.9414 0.638386C99.9414 0.285815 100.227 0 100.58 0C100.932 0 101.218 0.285816 101.218 0.638388V17.4949C101.218 17.8475 100.932 18.1333 100.58 18.1333C100.227 18.1333 99.9414 17.8475 99.9414 17.4949V0.638386Z" stroke="white"/>
<path d="M22.0195 1.63839C22.0195 1.28581 22.3053 1 22.6579 1C23.0105 1 23.2963 1.28582 23.2963 1.63839V18.4949C23.2963 18.8475 23.0105 19.1333 22.6579 19.1333C22.3053 19.1333 22.0195 18.8475 22.0195 18.4949V1.63839Z" fill="#393939"/>
<path d="M22.0195 1.63839C22.0195 1.28581 22.3053 1 22.6579 1C23.0105 1 23.2963 1.28582 23.2963 1.63839V18.4949C23.2963 18.8475 23.0105 19.1333 22.6579 19.1333C22.3053 19.1333 22.0195 18.8475 22.0195 18.4949V1.63839Z" stroke="white"/>
<path d="M143.252 1.70528C143.252 1.35271 143.538 1.06689 143.89 1.06689C144.243 1.06689 144.529 1.35271 144.529 1.70528V18.5618C144.529 18.9144 144.243 19.2002 143.89 19.2002C143.538 19.2002 143.252 18.9144 143.252 18.5618V1.70528Z" fill="#393939"/>
<path d="M143.252 1.70528C143.252 1.35271 143.538 1.06689 143.89 1.06689C144.243 1.06689 144.529 1.35271 144.529 1.70528V18.5618C144.529 18.9144 144.243 19.2002 143.89 19.2002C143.538 19.2002 143.252 18.9144 143.252 18.5618V1.70528Z" stroke="white"/>
<path d="M103.055 5.87716C103.055 5.52459 103.341 5.23877 103.693 5.23877C104.046 5.23877 104.331 5.52459 104.331 5.87716V13.0626C104.331 13.4152 104.046 13.701 103.693 13.701C103.341 13.701 103.055 13.4152 103.055 13.0626V5.87716Z" fill="#393939"/>
<path d="M103.055 5.87716C103.055 5.52459 103.341 5.23877 103.693 5.23877C104.046 5.23877 104.331 5.52459 104.331 5.87716V13.0626C104.331 13.4152 104.046 13.701 103.693 13.701C103.341 13.701 103.055 13.4152 103.055 13.0626V5.87716Z" stroke="white"/>
<path d="M146.365 6.94356C146.365 6.59099 146.651 6.30518 147.004 6.30518C147.356 6.30518 147.642 6.59099 147.642 6.94356V14.129C147.642 14.4816 147.356 14.7674 147.004 14.7674C146.651 14.7674 146.365 14.4816 146.365 14.129V6.94356Z" fill="#393939"/>
<path d="M146.365 6.94356C146.365 6.59099 146.651 6.30518 147.004 6.30518C147.356 6.30518 147.642 6.59099 147.642 6.94356V14.129C147.642 14.4816 147.356 14.7674 147.004 14.7674C146.651 14.7674 146.365 14.4816 146.365 14.129V6.94356Z" stroke="white"/>
<path d="M106.168 5.87716C106.168 5.52459 106.454 5.23877 106.806 5.23877C107.159 5.23877 107.445 5.52459 107.445 5.87716V13.0626C107.445 13.4152 107.159 13.701 106.806 13.701C106.454 13.701 106.168 13.4152 106.168 13.0626V5.87716Z" fill="#393939"/>
<path d="M106.168 5.87716C106.168 5.52459 106.454 5.23877 106.806 5.23877C107.159 5.23877 107.445 5.52459 107.445 5.87716V13.0626C107.445 13.4152 107.159 13.701 106.806 13.701C106.454 13.701 106.168 13.4152 106.168 13.0626V5.87716Z" stroke="white"/>
<path d="M149.479 6.94356C149.479 6.59099 149.764 6.30518 150.117 6.30518C150.469 6.30518 150.755 6.59099 150.755 6.94356V14.129C150.755 14.4816 150.469 14.7674 150.117 14.7674C149.764 14.7674 149.479 14.4816 149.479 14.129V6.94356Z" fill="#393939"/>
<path d="M149.479 6.94356C149.479 6.59099 149.764 6.30518 150.117 6.30518C150.469 6.30518 150.755 6.59099 150.755 6.94356V14.129C150.755 14.4816 150.469 14.7674 150.117 14.7674C149.764 14.7674 149.479 14.4816 149.479 14.129V6.94356Z" stroke="white"/>
<path d="M109.281 6.68282C109.281 6.33025 109.567 6.04443 109.92 6.04443C110.272 6.04443 110.558 6.33025 110.558 6.68282V11.4505C110.558 11.8031 110.272 12.0889 109.92 12.0889C109.567 12.0889 109.281 11.8031 109.281 11.4505V6.68282Z" fill="#393939"/>
<path d="M109.281 6.68282C109.281 6.33025 109.567 6.04443 109.92 6.04443C110.272 6.04443 110.558 6.33025 110.558 6.68282V11.4505C110.558 11.8031 110.272 12.0889 109.92 12.0889C109.567 12.0889 109.281 11.8031 109.281 11.4505V6.68282Z" stroke="white"/>
<path d="M152.592 7.74923C152.592 7.39666 152.878 7.11084 153.23 7.11084C153.583 7.11084 153.869 7.39666 153.869 7.74923V12.5169C153.869 12.8695 153.583 13.1553 153.23 13.1553C152.878 13.1553 152.592 12.8695 152.592 12.5169V7.74923Z" fill="#393939"/>
<path d="M152.592 7.74923C152.592 7.39666 152.878 7.11084 153.23 7.11084C153.583 7.11084 153.869 7.39666 153.869 7.74923V12.5169C153.869 12.8695 153.583 13.1553 153.23 13.1553C152.878 13.1553 152.592 12.8695 152.592 12.5169V7.74923Z" stroke="white"/>
<path d="M112.395 2.65304C112.395 2.30046 112.68 2.01465 113.033 2.01465C113.385 2.01465 113.671 2.30046 113.671 2.65304V15.48C113.671 15.8325 113.385 16.1184 113.033 16.1184C112.68 16.1184 112.395 15.8325 112.395 15.48V2.65304Z" fill="#393939"/>
<path d="M112.395 2.65304C112.395 2.30046 112.68 2.01465 113.033 2.01465C113.385 2.01465 113.671 2.30046 113.671 2.65304V15.48C113.671 15.8325 113.385 16.1184 113.033 16.1184C112.68 16.1184 112.395 15.8325 112.395 15.48V2.65304Z" stroke="white"/>
<path d="M155.705 3.71993C155.705 3.36736 155.991 3.08154 156.343 3.08154C156.696 3.08154 156.982 3.36736 156.982 3.71993V16.5469C156.982 16.8994 156.696 17.1852 156.343 17.1852C155.991 17.1852 155.705 16.8994 155.705 16.5469V3.71993Z" fill="#393939"/>
<path d="M155.705 3.71993C155.705 3.36736 155.991 3.08154 156.343 3.08154C156.696 3.08154 156.982 3.36736 156.982 3.71993V16.5469C156.982 16.8994 156.696 17.1852 156.343 17.1852C155.991 17.1852 155.705 16.8994 155.705 16.5469V3.71993Z" stroke="white"/>
<path d="M115.508 4.26485C115.508 3.91228 115.794 3.62646 116.146 3.62646C116.499 3.62646 116.785 3.91228 116.785 4.26485V13.8681C116.785 14.2207 116.499 14.5065 116.146 14.5065C115.794 14.5065 115.508 14.2207 115.508 13.8681V4.26485Z" fill="#393939"/>
<path d="M115.508 4.26485C115.508 3.91228 115.794 3.62646 116.146 3.62646C116.499 3.62646 116.785 3.91228 116.785 4.26485V13.8681C116.785 14.2207 116.499 14.5065 116.146 14.5065C115.794 14.5065 115.508 14.2207 115.508 13.8681V4.26485Z" stroke="white"/>
<path d="M158.818 5.33175C158.818 4.97917 159.104 4.69336 159.457 4.69336C159.809 4.69336 160.095 4.97918 160.095 5.33175V14.935C160.095 15.2875 159.809 15.5734 159.457 15.5734C159.104 15.5734 158.818 15.2875 158.818 14.935V5.33175Z" fill="#393939"/>
<path d="M158.818 5.33175C158.818 4.97917 159.104 4.69336 159.457 4.69336C159.809 4.69336 160.095 4.97918 160.095 5.33175V14.935C160.095 15.2875 159.809 15.5734 159.457 15.5734C159.104 15.5734 158.818 15.2875 158.818 14.935V5.33175Z" stroke="white"/>
<path d="M118.621 2.2502C118.621 1.89763 118.907 1.61182 119.259 1.61182C119.612 1.61182 119.898 1.89763 119.898 2.2502V16.689C119.898 17.0416 119.612 17.3274 119.259 17.3274C118.907 17.3274 118.621 17.0416 118.621 16.689V2.2502Z" fill="#393939"/>
<path d="M118.621 2.2502C118.621 1.89763 118.907 1.61182 119.259 1.61182C119.612 1.61182 119.898 1.89763 119.898 2.2502V16.689C119.898 17.0416 119.612 17.3274 119.259 17.3274C118.907 17.3274 118.621 17.0416 118.621 16.689V2.2502Z" stroke="white"/>
<path d="M161.932 3.3171C161.932 2.96453 162.217 2.67871 162.57 2.67871C162.923 2.67871 163.208 2.96453 163.208 3.3171V17.7559C163.208 18.1084 162.923 18.3943 162.57 18.3943C162.217 18.3943 161.932 18.1084 161.932 17.7559V3.3171Z" fill="#393939"/>
<path d="M161.932 3.3171C161.932 2.96453 162.217 2.67871 162.57 2.67871C162.923 2.67871 163.208 2.96453 163.208 3.3171V17.7559C163.208 18.1084 162.923 18.3943 162.57 18.3943C162.217 18.3943 161.932 18.1084 161.932 17.7559V3.3171Z" stroke="white"/>
<path d="M121.732 5.47384C121.732 5.12127 122.018 4.83545 122.371 4.83545C122.723 4.83545 123.009 5.12127 123.009 5.47384V13.0622C123.009 13.4148 122.723 13.7006 122.371 13.7006C122.018 13.7006 121.732 13.4148 121.732 13.0622V5.47384Z" fill="#393939"/>
<path d="M121.732 5.47384C121.732 5.12127 122.018 4.83545 122.371 4.83545C122.723 4.83545 123.009 5.12127 123.009 5.47384V13.0622C123.009 13.4148 122.723 13.7006 122.371 13.7006C122.018 13.7006 121.732 13.4148 121.732 13.0622V5.47384Z" stroke="white"/>
<path d="M165.045 6.54073C165.045 6.18816 165.331 5.90234 165.683 5.90234C166.036 5.90234 166.322 6.18816 166.322 6.54073V14.1291C166.322 14.4817 166.036 14.7675 165.683 14.7675C165.331 14.7675 165.045 14.4817 165.045 14.1291V6.54073Z" fill="#393939"/>
<path d="M165.045 6.54073C165.045 6.18816 165.331 5.90234 165.683 5.90234C166.036 5.90234 166.322 6.18816 166.322 6.54073V14.1291C166.322 14.4817 166.036 14.7675 165.683 14.7675C165.331 14.7675 165.045 14.4817 165.045 14.1291V6.54073Z" stroke="white"/>
<path d="M124.848 3.05636C124.848 2.70378 125.133 2.41797 125.486 2.41797C125.839 2.41797 126.124 2.70378 126.124 3.05636V15.0774C126.124 15.4299 125.839 15.7157 125.486 15.7157C125.133 15.7157 124.848 15.4299 124.848 15.0774V3.05636Z" fill="#393939"/>
<path d="M124.848 3.05636C124.848 2.70378 125.133 2.41797 125.486 2.41797C125.839 2.41797 126.124 2.70378 126.124 3.05636V15.0774C126.124 15.4299 125.839 15.7157 125.486 15.7157C125.133 15.7157 124.848 15.4299 124.848 15.0774V3.05636Z" stroke="white"/>
<path d="M168.156 4.12276C168.156 3.77019 168.442 3.48438 168.795 3.48438C169.147 3.48438 169.433 3.77019 169.433 4.12276V16.1438C169.433 16.4963 169.147 16.7822 168.795 16.7822C168.442 16.7822 168.156 16.4963 168.156 16.1438V4.12276Z" fill="#393939"/>
<path d="M168.156 4.12276C168.156 3.77019 168.442 3.48438 168.795 3.48438C169.147 3.48438 169.433 3.77019 169.433 4.12276V16.1438C169.433 16.4963 169.147 16.7822 168.795 16.7822C168.442 16.7822 168.156 16.4963 168.156 16.1438V4.12276Z" stroke="white"/>
<path d="M127.959 4.26485C127.959 3.91228 128.245 3.62646 128.597 3.62646C128.95 3.62646 129.236 3.91228 129.236 4.26485V13.8681C129.236 14.2207 128.95 14.5065 128.597 14.5065C128.245 14.5065 127.959 14.2207 127.959 13.8681V4.26485Z" fill="#393939"/>
<path d="M127.959 4.26485C127.959 3.91228 128.245 3.62646 128.597 3.62646C128.95 3.62646 129.236 3.91228 129.236 4.26485V13.8681C129.236 14.2207 128.95 14.5065 128.597 14.5065C128.245 14.5065 127.959 14.2207 127.959 13.8681V4.26485Z" stroke="white"/>
<path d="M171.271 5.33175C171.271 4.97917 171.557 4.69336 171.91 4.69336C172.262 4.69336 172.548 4.97918 172.548 5.33175V14.935C172.548 15.2875 172.262 15.5734 171.91 15.5734C171.557 15.5734 171.271 15.2875 171.271 14.935V5.33175Z" fill="#393939"/>
<path d="M171.271 5.33175C171.271 4.97917 171.557 4.69336 171.91 4.69336C172.262 4.69336 172.548 4.97918 172.548 5.33175V14.935C172.548 15.2875 172.262 15.5734 171.91 15.5734C171.557 15.5734 171.271 15.2875 171.271 14.935V5.33175Z" stroke="white"/>
<path d="M131.074 3.86202C131.074 3.50945 131.36 3.22363 131.713 3.22363C132.065 3.22363 132.351 3.50945 132.351 3.86202V14.6741C132.351 15.0267 132.065 15.3125 131.713 15.3125C131.36 15.3125 131.074 15.0267 131.074 14.6741V3.86202Z" fill="#393939"/>
<path d="M131.074 3.86202C131.074 3.50945 131.36 3.22363 131.713 3.22363C132.065 3.22363 132.351 3.50945 132.351 3.86202V14.6741C132.351 15.0267 132.065 15.3125 131.713 15.3125C131.36 15.3125 131.074 15.0267 131.074 14.6741V3.86202Z" stroke="white"/>
<path d="M174.383 4.92891C174.383 4.57634 174.669 4.29053 175.021 4.29053C175.374 4.29053 175.66 4.57634 175.66 4.92892V15.741C175.66 16.0936 175.374 16.3794 175.021 16.3794C174.669 16.3794 174.383 16.0936 174.383 15.741V4.92891Z" fill="#393939"/>
<path d="M174.383 4.92891C174.383 4.57634 174.669 4.29053 175.021 4.29053C175.374 4.29053 175.66 4.57634 175.66 4.92892V15.741C175.66 16.0936 175.374 16.3794 175.021 16.3794C174.669 16.3794 174.383 16.0936 174.383 15.741V4.92891Z" stroke="white"/>
<path d="M134.186 5.47384C134.186 5.12127 134.471 4.83545 134.824 4.83545C135.177 4.83545 135.462 5.12127 135.462 5.47384V13.0622C135.462 13.4148 135.177 13.7006 134.824 13.7006C134.471 13.7006 134.186 13.4148 134.186 13.0622V5.47384Z" fill="#393939"/>
<path d="M134.186 5.47384C134.186 5.12127 134.471 4.83545 134.824 4.83545C135.177 4.83545 135.462 5.12127 135.462 5.47384V13.0622C135.462 13.4148 135.177 13.7006 134.824 13.7006C134.471 13.7006 134.186 13.4148 134.186 13.0622V5.47384Z" stroke="white"/>
<path d="M177.498 6.54073C177.498 6.18816 177.784 5.90234 178.136 5.90234C178.489 5.90234 178.775 6.18816 178.775 6.54073V14.1291C178.775 14.4817 178.489 14.7675 178.136 14.7675C177.784 14.7675 177.498 14.4817 177.498 14.1291V6.54073Z" fill="#393939"/>
<path d="M177.498 6.54073C177.498 6.18816 177.784 5.90234 178.136 5.90234C178.489 5.90234 178.775 6.18816 178.775 6.54073V14.1291C178.775 14.4817 178.489 14.7675 178.136 14.7675C177.784 14.7675 177.498 14.4817 177.498 14.1291V6.54073Z" stroke="white"/>
<path d="M137.299 3.86202C137.299 3.50945 137.585 3.22363 137.937 3.22363C138.29 3.22363 138.576 3.50945 138.576 3.86202V15.0771C138.576 15.4297 138.29 15.7155 137.937 15.7155C137.585 15.7155 137.299 15.4297 137.299 15.0771V3.86202Z" fill="#393939"/>
<path d="M137.299 3.86202C137.299 3.50945 137.585 3.22363 137.937 3.22363C138.29 3.22363 138.576 3.50945 138.576 3.86202V15.0771C138.576 15.4297 138.29 15.7155 137.937 15.7155C137.585 15.7155 137.299 15.4297 137.299 15.0771V3.86202Z" stroke="white"/>
<path d="M180.609 4.92891C180.609 4.57634 180.895 4.29053 181.248 4.29053C181.6 4.29053 181.886 4.57634 181.886 4.92891V16.144C181.886 16.4966 181.6 16.7824 181.248 16.7824C180.895 16.7824 180.609 16.4966 180.609 16.144V4.92891Z" fill="#393939"/>
<path d="M180.609 4.92891C180.609 4.57634 180.895 4.29053 181.248 4.29053C181.6 4.29053 181.886 4.57634 181.886 4.92891V16.144C181.886 16.4966 181.6 16.7824 181.248 16.7824C180.895 16.7824 180.609 16.4966 180.609 16.144V4.92891Z" stroke="white"/>
<path d="M140.414 6.68282C140.414 6.33025 140.7 6.04443 141.052 6.04443C141.405 6.04443 141.691 6.33025 141.691 6.68282V11.4505C141.691 11.8031 141.405 12.0889 141.052 12.0889C140.7 12.0889 140.414 11.8031 140.414 11.4505V6.68282Z" fill="#393939"/>
<path d="M140.414 6.68282C140.414 6.33025 140.7 6.04443 141.052 6.04443C141.405 6.04443 141.691 6.33025 141.691 6.68282V11.4505C141.691 11.8031 141.405 12.0889 141.052 12.0889C140.7 12.0889 140.414 11.8031 140.414 11.4505V6.68282Z" stroke="white"/>
<path d="M183.723 7.74923C183.723 7.39666 184.008 7.11084 184.361 7.11084C184.714 7.11084 184.999 7.39666 184.999 7.74923V12.5169C184.999 12.8695 184.714 13.1553 184.361 13.1553C184.008 13.1553 183.723 12.8695 183.723 12.5169V7.74923Z" fill="#393939"/>
<path d="M183.723 7.74923C183.723 7.39666 184.008 7.11084 184.361 7.11084C184.714 7.11084 184.999 7.39666 184.999 7.74923V12.5169C184.999 12.8695 184.714 13.1553 184.361 13.1553C184.008 13.1553 183.723 12.8695 183.723 12.5169V7.74923Z" stroke="white"/>
</svg>
