<svg width="60" height="60" viewBox="0 0 60 60" fill="none" xmlns="http://www.w3.org/2000/svg">
<path d="M52.6752 13.075C48.6502 12.675 44.6251 12.375 40.5751 12.15V12.125L40.0252 8.875C39.6502 6.575 39.1002 3.125 33.2501 3.125H26.7001C20.8752 3.125 20.3251 6.425 19.9251 8.85L19.4002 12.05C17.0751 12.2 14.7501 12.35 12.4251 12.575L7.32515 13.075C6.27515 13.175 5.52515 14.1 5.62515 15.125C5.72515 16.15 6.62515 16.9 7.67515 16.8L12.7752 16.3C25.8751 15 39.0752 15.5 52.3252 16.825C52.4002 16.825 52.4502 16.825 52.5252 16.825C53.4752 16.825 54.3002 16.1 54.4002 15.125C54.4752 14.1 53.7252 13.175 52.6752 13.075Z" fill="#F26767"/>
<path d="M48.0749 20.35C47.4749 19.725 46.6499 19.375 45.7999 19.375H14.1999C13.3499 19.375 12.4999 19.725 11.9249 20.35C11.3499 20.975 11.0249 21.825 11.0749 22.7L12.6249 48.35C12.8999 52.15 13.2499 56.9 21.9749 56.9H38.0249C46.7499 56.9 47.0999 52.175 47.3749 48.35L48.9249 22.725C48.9749 21.825 48.6499 20.975 48.0749 20.35ZM34.1499 44.375H25.8249C24.7999 44.375 23.9499 43.525 23.9499 42.5C23.9499 41.475 24.7999 40.625 25.8249 40.625H34.1499C35.1749 40.625 36.0249 41.475 36.0249 42.5C36.0249 43.525 35.1749 44.375 34.1499 44.375ZM36.2499 34.375H23.7499C22.7249 34.375 21.8749 33.525 21.8749 32.5C21.8749 31.475 22.7249 30.625 23.7499 30.625H36.2499C37.2749 30.625 38.1249 31.475 38.1249 32.5C38.1249 33.525 37.2749 34.375 36.2499 34.375Z" fill="#F26767"/>
</svg>
