<svg width="26" height="26" viewBox="0 0 26 26" fill="none" xmlns="http://www.w3.org/2000/svg">
<path d="M21.667 13.2163V15.058C21.667 18.4705 19.717 19.933 16.792 19.933H7.04199C4.11699 19.933 2.16699 18.4705 2.16699 15.058V9.20801C2.16699 5.79551 4.11699 4.33301 7.04199 4.33301H9.96699C9.82616 4.74467 9.75033 5.19967 9.75033 5.68717V9.9122C9.75033 10.963 10.097 11.8514 10.7145 12.4689C11.332 13.0864 12.2203 13.433 13.2712 13.433V14.9389C13.2712 15.4914 13.8995 15.8271 14.3653 15.5238L17.4962 13.433H20.3128C20.8003 13.433 21.2553 13.3571 21.667 13.2163Z" stroke="#393939" stroke-width="1.5" stroke-miterlimit="10" stroke-linecap="round" stroke-linejoin="round"/>
<path d="M23.8333 5.68783V9.91285C23.8333 11.527 23.01 12.7403 21.6667 13.2169C21.255 13.3578 20.8 13.4337 20.3125 13.4337H17.4958L14.365 15.5244C13.8992 15.8278 13.2708 15.492 13.2708 14.9395V13.4337C12.22 13.4337 11.3317 13.087 10.7142 12.4695C10.0967 11.852 9.75 10.9637 9.75 9.91285V5.68783C9.75 5.20033 9.82583 4.74533 9.96667 4.33366C10.4433 2.99033 11.6567 2.16699 13.2708 2.16699H20.3125C22.425 2.16699 23.8333 3.57533 23.8333 5.68783Z" stroke="#393939" stroke-width="1.5" stroke-miterlimit="10" stroke-linecap="round" stroke-linejoin="round"/>
<path d="M8.0166 23.833H15.8166" stroke="#393939" stroke-width="1.5" stroke-miterlimit="10" stroke-linecap="round" stroke-linejoin="round"/>
<path d="M11.917 19.9336V23.8336" stroke="#393939" stroke-width="1.5" stroke-miterlimit="10" stroke-linecap="round" stroke-linejoin="round"/>
<path d="M20.0368 7.85417H20.0465" stroke="#393939" stroke-width="1.5" stroke-linecap="round" stroke-linejoin="round"/>
<path d="M17.0036 7.85417H17.0133" stroke="#393939" stroke-width="1.5" stroke-linecap="round" stroke-linejoin="round"/>
<path d="M13.9704 7.85417H13.9801" stroke="#393939" stroke-width="1.5" stroke-linecap="round" stroke-linejoin="round"/>
</svg>
