<svg width="120" height="120" viewBox="0 0 120 120" fill="none" xmlns="http://www.w3.org/2000/svg">
<path d="M74.25 19.75V38.75H66.75V19.75C66.75 18.4 65.55 17.75 64.75 17.75C64.5 17.75 64.25 17.8 64 17.9L24.35 32.85C21.7 33.85 20 36.35 20 39.2V42.55C15.45 45.95 12.5 51.4 12.5 57.55V39.2C12.5 33.25 16.15 27.95 21.7 25.85L61.4 10.85C62.5 10.45 63.65 10.25 64.75 10.25C69.75 10.25 74.25 14.3 74.25 19.75Z" fill="#8C54BF"/>
<path d="M107.5 72.5V77.5C107.5 78.85 106.45 79.95 105.05 80H97.7504C95.1004 80 92.7004 78.05 92.5004 75.45C92.3504 73.9 92.9504 72.45 93.9504 71.45C94.8504 70.5 96.1004 70 97.4504 70H105C106.45 70.05 107.5 71.15 107.5 72.5Z" fill="#8C54BF"/>
<path d="M97.4 64.75H102.5C105.25 64.75 107.5 62.5 107.5 59.75V57.55C107.5 47.2 99.05 38.75 88.7 38.75H31.3C27.05 38.75 23.15 40.15 20 42.55C15.45 45.95 12.5 51.4 12.5 57.55V91.2C12.5 101.55 20.95 110 31.3 110H88.7C99.05 110 107.5 101.55 107.5 91.2V90.25C107.5 87.5 105.25 85.25 102.5 85.25H98.15C93.35 85.25 88.75 82.3 87.5 77.65C86.45 73.85 87.7 70.2 90.2 67.75C92.05 65.85 94.6 64.75 97.4 64.75ZM70 63.75H35C32.95 63.75 31.25 62.05 31.25 60C31.25 57.95 32.95 56.25 35 56.25H70C72.05 56.25 73.75 57.95 73.75 60C73.75 62.05 72.05 63.75 70 63.75Z" fill="#8C54BF"/>
</svg>
