<svg width="160" height="160" viewBox="0 0 160 160" fill="none" xmlns="http://www.w3.org/2000/svg">
<path d="M98.9998 26.3332V51.6665H88.9998V26.3332C88.9998 24.5332 87.3998 23.6665 86.3332 23.6665C85.9998 23.6665 85.6665 23.7332 85.3332 23.8665L32.4665 43.7998C28.9332 45.1332 26.6665 48.4665 26.6665 52.2665V56.7332C20.5998 61.2665 16.6665 68.5332 16.6665 76.7332V52.2665C16.6665 44.3332 21.5332 37.2665 28.9332 34.4665L81.8665 14.4665C83.3332 13.9332 84.8665 13.6665 86.3332 13.6665C92.9998 13.6665 98.9998 19.0665 98.9998 26.3332Z" fill="#8C54BF"/>
<path d="M143.333 96.6668V103.333C143.333 105.133 141.933 106.6 140.067 106.667H130.333C126.8 106.667 123.6 104.067 123.333 100.6C123.133 98.5335 123.933 96.6002 125.267 95.2668C126.467 94.0002 128.133 93.3335 129.933 93.3335H140C141.933 93.4002 143.333 94.8668 143.333 96.6668Z" fill="#8C54BF"/>
<path d="M129.867 86.3332H136.667C140.333 86.3332 143.333 83.3332 143.333 79.6665V76.7332C143.333 62.9332 132.066 51.6665 118.267 51.6665H41.7332C36.0665 51.6665 30.8665 53.5332 26.6665 56.7332C20.5998 61.2665 16.6665 68.5332 16.6665 76.7332V121.6C16.6665 135.4 27.9332 146.667 41.7332 146.667H118.267C132.066 146.667 143.333 135.4 143.333 121.6V120.333C143.333 116.666 140.333 113.666 136.667 113.666H130.866C124.466 113.666 118.333 109.733 116.667 103.533C115.267 98.4665 116.933 93.5998 120.267 90.3332C122.733 87.7998 126.133 86.3332 129.867 86.3332ZM93.3332 84.9998H46.6665C43.9332 84.9998 41.6665 82.7332 41.6665 79.9998C41.6665 77.2665 43.9332 74.9998 46.6665 74.9998H93.3332C96.0665 74.9998 98.3332 77.2665 98.3332 79.9998C98.3332 82.7332 96.0665 84.9998 93.3332 84.9998Z" fill="#8C54BF"/>
</svg>
