<svg width="72" height="72" viewBox="0 0 72 72" fill="none" xmlns="http://www.w3.org/2000/svg">
<circle cx="36" cy="36" r="36" fill="#D14627"/>
<path d="M53.5669 43.0599L42.0469 22.3239C40.4989 19.5339 38.3569 18.0039 35.9989 18.0039C33.6409 18.0039 31.4989 19.5339 29.9509 22.3239L18.4309 43.0599C16.9729 45.7059 16.8109 48.2439 17.9809 50.2419C19.1509 52.2399 21.4549 53.3379 24.4789 53.3379H47.5189C50.5429 53.3379 52.8469 52.2399 54.0169 50.2419C55.1869 48.2439 55.0249 45.6879 53.5669 43.0599ZM34.6489 30.6039C34.6489 29.8659 35.2609 29.2539 35.9989 29.2539C36.7369 29.2539 37.3489 29.8659 37.3489 30.6039V39.6039C37.3489 40.3419 36.7369 40.9539 35.9989 40.9539C35.2609 40.9539 34.6489 40.3419 34.6489 39.6039V30.6039ZM37.2769 46.2819C37.1869 46.3539 37.0969 46.4259 37.0069 46.4979C36.8989 46.5699 36.7909 46.6239 36.6829 46.6599C36.5749 46.7139 36.4669 46.7499 36.3409 46.7679C36.2329 46.7859 36.1069 46.8039 35.9989 46.8039C35.8909 46.8039 35.7649 46.7859 35.6389 46.7679C35.5309 46.7499 35.4229 46.7139 35.3149 46.6599C35.2069 46.6239 35.0989 46.5699 34.9909 46.4979C34.9009 46.4259 34.8109 46.3539 34.7209 46.2819C34.3969 45.9399 34.1989 45.4719 34.1989 45.0039C34.1989 44.5359 34.3969 44.0679 34.7209 43.7259C34.8109 43.6539 34.9009 43.5819 34.9909 43.5099C35.0989 43.4379 35.2069 43.3839 35.3149 43.3479C35.4229 43.2939 35.5309 43.2579 35.6389 43.2399C35.8729 43.1859 36.1249 43.1859 36.3409 43.2399C36.4669 43.2579 36.5749 43.2939 36.6829 43.3479C36.7909 43.3839 36.8989 43.4379 37.0069 43.5099C37.0969 43.5819 37.1869 43.6539 37.2769 43.7259C37.6009 44.0679 37.7989 44.5359 37.7989 45.0039C37.7989 45.4719 37.6009 45.9399 37.2769 46.2819Z" fill="white"/>
</svg>
