<svg width="284" height="48" viewBox="0 0 284 48" fill="none" xmlns="http://www.w3.org/2000/svg">
<rect width="284" height="48" rx="4" fill="#393C51"/>
<rect x="18" y="12" width="3" height="23" rx="1.5" fill="white"/>
<rect x="43" y="12" width="3" height="23" rx="1.5" fill="white"/>
<rect x="68" y="12" width="3" height="23" rx="1.5" fill="white"/>
<rect x="93" y="12" width="3" height="23" rx="1.5" fill="white"/>
<rect x="118" y="12" width="3" height="23" rx="1.5" fill="white"/>
<rect x="143" y="12" width="3" height="23" rx="1.5" fill="white"/>
<rect x="168" y="12" width="3" height="23" rx="1.5" fill="white"/>
<rect x="193" y="12" width="3" height="23" rx="1.5" fill="white"/>
<rect x="218" y="12" width="3" height="23" rx="1.5" fill="white"/>
<rect x="243" y="12" width="3" height="23" rx="1.5" fill="white"/>
<rect x="28" y="9" width="3" height="30" rx="1.5" fill="white"/>
<rect x="53" y="9" width="3" height="30" rx="1.5" fill="white"/>
<rect x="78" y="9" width="3" height="30" rx="1.5" fill="white"/>
<rect x="103" y="9" width="3" height="30" rx="1.5" fill="white"/>
<rect x="128" y="9" width="3" height="30" rx="1.5" fill="white"/>
<rect x="153" y="9" width="3" height="30" rx="1.5" fill="white"/>
<rect x="178" y="9" width="3" height="30" rx="1.5" fill="white"/>
<rect x="203" y="9" width="3" height="30" rx="1.5" fill="white"/>
<rect x="228" y="9" width="3" height="30" rx="1.5" fill="white"/>
<rect x="253" y="9" width="3" height="30" rx="1.5" fill="white"/>
<rect x="33" y="9" width="3" height="30" rx="1.5" fill="white"/>
<rect x="58" y="9" width="3" height="30" rx="1.5" fill="white"/>
<rect x="83" y="9" width="3" height="30" rx="1.5" fill="white"/>
<rect x="108" y="9" width="3" height="30" rx="1.5" fill="white"/>
<rect x="133" y="9" width="3" height="30" rx="1.5" fill="white"/>
<rect x="158" y="9" width="3" height="30" rx="1.5" fill="white"/>
<rect x="183" y="9" width="3" height="30" rx="1.5" fill="white"/>
<rect x="208" y="9" width="3" height="30" rx="1.5" fill="white"/>
<rect x="233" y="9" width="3" height="30" rx="1.5" fill="white"/>
<rect x="258" y="9" width="3" height="30" rx="1.5" fill="white"/>
<rect x="38" y="16" width="3" height="15" rx="1.5" fill="white"/>
<rect x="63" y="16" width="3" height="15" rx="1.5" fill="white"/>
<rect x="88" y="16" width="3" height="15" rx="1.5" fill="white"/>
<rect x="113" y="16" width="3" height="15" rx="1.5" fill="white"/>
<rect x="138" y="16" width="3" height="15" rx="1.5" fill="white"/>
<rect x="163" y="16" width="3" height="15" rx="1.5" fill="white"/>
<rect x="188" y="16" width="3" height="15" rx="1.5" fill="white"/>
<rect x="213" y="16" width="3" height="15" rx="1.5" fill="white"/>
<rect x="238" y="16" width="3" height="15" rx="1.5" fill="white"/>
<rect x="263" y="16" width="3" height="15" rx="1.5" fill="white"/>
<rect x="23" y="16" width="3" height="15" rx="1.5" fill="white"/>
<rect x="48" y="16" width="3" height="15" rx="1.5" fill="white"/>
<rect x="73" y="16" width="3" height="15" rx="1.5" fill="white"/>
<rect x="98" y="16" width="3" height="15" rx="1.5" fill="white"/>
<rect x="123" y="16" width="3" height="15" rx="1.5" fill="white"/>
<rect x="148" y="16" width="3" height="15" rx="1.5" fill="white"/>
<rect x="173" y="16" width="3" height="15" rx="1.5" fill="white"/>
<rect x="198" y="16" width="3" height="15" rx="1.5" fill="white"/>
<rect x="223" y="16" width="3" height="15" rx="1.5" fill="white"/>
<rect x="248" y="16" width="3" height="15" rx="1.5" fill="white"/>
</svg>
