<svg width="20" height="18" viewBox="0 0 20 18" fill="none" xmlns="http://www.w3.org/2000/svg">
<path d="M2.00137 18H17.0614C18.6014 18 19.5614 16.33 18.7914 15L11.2614 1.98999C10.4914 0.659993 8.57137 0.659993 7.80137 1.98999L0.271371 15C-0.498629 16.33 0.461371 18 2.00137 18ZM9.53137 11C8.98137 11 8.53137 10.55 8.53137 9.99999V7.99999C8.53137 7.44999 8.98137 6.99999 9.53137 6.99999C10.0814 6.99999 10.5314 7.44999 10.5314 7.99999V9.99999C10.5314 10.55 10.0814 11 9.53137 11ZM10.5314 15H8.53137V13H10.5314V15Z" fill="#E2AC37"/>
</svg>
